<?xml version="1.0" encoding="UTF-8" standalone="no"?>
<svg
   xmlns:dc="http://purl.org/dc/elements/1.1/"
   xmlns:cc="http://creativecommons.org/ns#"
   xmlns:rdf="http://www.w3.org/1999/02/22-rdf-syntax-ns#"
   xmlns:svg="http://www.w3.org/2000/svg"
   xmlns="http://www.w3.org/2000/svg"
   viewBox="0 0 793.70135 325.18668"
   height="325.18668"
   width="793.70135"
   xml:space="preserve"
   id="svg2"
   version="1.1"><metadata
     id="metadata8"><rdf:RDF><cc:Work
         rdf:about=""><dc:format>image/svg+xml</dc:format><dc:type
           rdf:resource="http://purl.org/dc/dcmitype/StillImage" /></cc:Work></rdf:RDF></metadata><defs
     id="defs6"><clipPath
       id="clipPath52"
       clipPathUnits="userSpaceOnUse"><path
         id="path50"
         d="M 0,243.89 H 595.276 V 0 H 0 Z" /></clipPath></defs><g
     transform="matrix(1.3333333,0,0,-1.3333333,0,325.18667)"
     id="g10"><path
       id="path12"
       style="fill:#1e3861;fill-opacity:1;fill-rule:nonzero;stroke:none"
       d="M 64.44,167.543 H 78.232 V 113.156 H 64.44 Z m 0,15.347 h 13.792 v -9.714 H 64.44 Z" /><g
       transform="translate(88.3314,113.1551)"
       id="g14"><path
         id="path16"
         style="fill:#1e3861;fill-opacity:1;fill-rule:nonzero;stroke:none"
         d="M 0,0 V 43.706 L 10.683,54.387 H 38.654 V 41.957 H 13.792 L 13.792,0 Z" /></g><path
       id="path18"
       style="fill:#1e3861;fill-opacity:1;fill-rule:nonzero;stroke:none"
       d="m 147.088,124.421 h 21.95 v 31.857 h -21.95 z m -13.791,-0.97 v 33.797 l 10.294,10.295 h 28.943 l 10.295,-10.295 v -33.797 l -10.295,-10.296 h -28.943 z" /><g
       transform="translate(192.2495,113.1551)"
       id="g20"><path
         id="path22"
         style="fill:#1e3861;fill-opacity:1;fill-rule:nonzero;stroke:none"
         d="M 0,0 V 54.387 H 39.431 L 50.115,43.706 V 0 H 36.323 V 42.345 H 13.792 L 13.792,0 Z" /></g><g
       transform="translate(264.1189,176.2843)"
       id="g24"><path
         id="path26"
         style="fill:#1e3861;fill-opacity:1;fill-rule:nonzero;stroke:none"
         d="M 0,0 13.792,4.855 V -10.683 H 34.77 V -22.339 H 13.792 V -51.476 H 34.77 V -63.129 H 10.683 L 0,-52.446 Z" /></g><g
       transform="translate(414.2692,167.5425)"
       id="g28"><path
         id="path30"
         style="fill:#1e3861;fill-opacity:1;fill-rule:nonzero;stroke:none"
         d="m 0,0 v -54.387 h -39.433 l -10.682,10.683 V 0 h 13.79 v -42.345 h 22.533 V 0 Z" /></g><g
       transform="translate(423.6881,123.4509)"
       id="g32"><path
         id="path34"
         style="fill:#1e3861;fill-opacity:1;fill-rule:nonzero;stroke:none"
         d="M 0,0 V 33.797 L 10.294,44.092 H 45.065 V 31.661 H 13.792 V 2.136 H 45.065 V -10.296 H 10.294 Z" /></g><g
       transform="translate(476.3269,113.1551)"
       id="g36"><path
         id="path38"
         style="fill:#1e3861;fill-opacity:1;fill-rule:nonzero;stroke:none"
         d="M 0,0 V 67.984 H 13.792 V 54.387 H 39.433 L 50.116,43.706 V 0 H 36.325 V 42.734 H 13.792 L 13.792,0 Z" /></g><g
       transform="translate(344.438,167.5425)"
       id="g40"><path
         id="path42"
         style="fill:#1e3861;fill-opacity:1;fill-rule:nonzero;stroke:none"
         d="m 0,0 h -18.098 v -11.264 h 14.602 v -31.858 h -21.949 v 18.19 h -13.792 v -19.16 l 10.295,-10.295 H 0 l 10.294,10.295 v 33.798 z" /></g><path
       id="path44"
       style="fill:#e3183a;fill-opacity:1;fill-rule:nonzero;stroke:none"
       d="m 326.34,141.973 h -7.55 v 14.393 h 7.55 z" /><g
       id="g46"><g
         clip-path="url(#clipPath52)"
         id="g48"><g
           transform="translate(233.5562,87.6417)"
           id="g54"><path
             id="path56"
             style="fill:#e3183a;fill-opacity:1;fill-rule:nonzero;stroke:none"
             d="m 0,0 c -0.237,0 -0.355,0.12 -0.355,0.359 v 3.09 c 0,0.239 0.118,0.359 0.355,0.359 h 2.989 c 0.238,0 0.356,-0.12 0.356,-0.359 V 0.359 C 3.345,0.12 3.227,0 2.989,0 Z m -2.349,4.591 c -0.237,0 -0.356,0.119 -0.356,0.359 v 3.089 c 0,0.239 0.119,0.359 0.356,0.359 h 2.99 c 0.236,0 0.356,-0.12 0.356,-0.359 V 4.95 C 0.997,4.71 0.877,4.591 0.641,4.591 Z M -4.626,0 c -0.238,0 -0.356,0.12 -0.356,0.359 v 3.09 c 0,0.239 0.118,0.359 0.356,0.359 h 2.989 c 0.237,0 0.356,-0.12 0.356,-0.359 V 0.359 C -1.281,0.12 -1.4,0 -1.637,0 Z m -20.641,-17.544 c 0,1.281 0.202,2.562 0.605,3.843 0.404,1.281 0.902,2.385 1.495,3.31 0.119,0.213 0.296,0.237 0.534,0.071 l 2.883,-1.139 c 0.118,-0.048 0.183,-0.113 0.195,-0.196 0.012,-0.083 -0.006,-0.172 -0.053,-0.266 -0.38,-0.665 -0.742,-1.442 -1.085,-2.331 -0.345,-0.89 -0.516,-1.869 -0.516,-2.936 0,-0.926 0.147,-1.703 0.444,-2.332 0.297,-0.627 0.677,-1.132 1.139,-1.512 0.463,-0.379 0.979,-0.646 1.548,-0.801 0.57,-0.153 1.127,-0.231 1.673,-0.231 1.375,0 2.479,0.364 3.309,1.091 0.83,0.727 1.246,1.901 1.246,3.522 V -6.69 c 0,0.236 0.117,0.356 0.352,0.356 h 3.281 c 0.235,0 0.353,-0.12 0.353,-0.356 v -5.801 c 0,-0.925 0.257,-1.536 0.77,-1.833 0.514,-0.297 1.117,-0.445 1.81,-0.445 0.55,0 0.985,0.054 1.308,0.161 0.322,0.107 0.568,0.272 0.735,0.498 0.167,0.225 0.275,0.516 0.323,0.872 0.047,0.356 0.071,0.794 0.071,1.317 v 5.231 c 0,0.236 0.118,0.356 0.353,0.356 h 3.281 c 0.234,0 0.352,-0.12 0.352,-0.356 v -5.908 c 0,-0.451 0.077,-0.818 0.233,-1.103 0.155,-0.284 0.358,-0.504 0.609,-0.658 0.251,-0.155 0.532,-0.262 0.843,-0.321 0.31,-0.059 0.633,-0.089 0.968,-0.089 0.573,0 1.015,0.077 1.325,0.231 0.311,0.153 0.544,0.378 0.699,0.674 0.156,0.296 0.245,0.674 0.269,1.135 0.024,0.461 0.036,1.011 0.036,1.65 v 7.165 c 0,0.237 0.117,0.355 0.353,0.355 h 3.28 c 0.235,0 0.353,-0.118 0.353,-0.355 v -8.655 c 0,-0.71 0.267,-1.254 0.801,-1.632 0.533,-0.379 1.251,-0.568 2.153,-0.568 h 0.569 c 0.474,0 0.83,-0.131 1.067,-0.395 0.238,-0.263 0.356,-0.707 0.356,-1.33 0,-0.695 -0.113,-1.174 -0.338,-1.438 -0.225,-0.263 -0.587,-0.395 -1.085,-0.395 -0.902,0 -1.691,0.113 -2.367,0.341 -0.676,0.228 -1.215,0.725 -1.615,1.492 -0.333,-0.671 -0.807,-1.144 -1.423,-1.42 -0.618,-0.276 -1.459,-0.413 -2.527,-0.413 H 4.772 c -1.02,0 -1.862,0.132 -2.526,0.395 -0.664,0.264 -1.186,0.755 -1.566,1.474 -0.594,-1.247 -1.827,-1.869 -3.702,-1.869 h -1.852 c -1.329,0 -2.326,0.407 -2.99,1.222 v -0.463 c 0,-1.354 -0.208,-2.542 -0.622,-3.564 -0.414,-1.021 -1.006,-1.87 -1.776,-2.548 -0.769,-0.677 -1.687,-1.182 -2.752,-1.515 -1.066,-0.332 -2.249,-0.498 -3.551,-0.498 -1.255,0 -2.41,0.166 -3.463,0.498 -1.054,0.332 -1.971,0.836 -2.752,1.512 -0.782,0.676 -1.391,1.525 -1.83,2.544 -0.438,1.021 -0.657,2.219 -0.657,3.595" /></g><g
           transform="translate(254.0898,87.6417)"
           id="g58"><path
             id="path60"
             style="fill:#e3183a;fill-opacity:1;fill-rule:nonzero;stroke:none"
             d="m 0,0 c -0.237,0 -0.356,0.12 -0.356,0.359 v 3.09 c 0,0.239 0.119,0.359 0.356,0.359 h 2.989 c 0.237,0 0.356,-0.12 0.356,-0.359 V 0.359 C 3.345,0.12 3.226,0 2.989,0 Z m -4.626,0 c -0.238,0 -0.356,0.12 -0.356,0.359 v 3.09 c 0,0.239 0.118,0.359 0.356,0.359 h 2.989 c 0.237,0 0.356,-0.12 0.356,-0.359 V 0.359 C -1.281,0.12 -1.4,0 -1.637,0 Z m -2.207,-18.327 c -0.474,0 -0.83,0.113 -1.067,0.341 -0.237,0.228 -0.356,0.665 -0.356,1.313 0,0.694 0.113,1.185 0.338,1.473 0.226,0.287 0.587,0.431 1.085,0.431 h 2.313 c 0.593,0 1.026,0.136 1.299,0.408 0.273,0.272 0.41,0.763 0.41,1.472 v 8.975 c 0,0.237 0.117,0.355 0.353,0.355 h 3.28 c 0.235,0 0.352,-0.119 0.352,-0.356 v -9.928 c 0,-1.543 -0.317,-2.676 -0.952,-3.399 -0.635,-0.724 -1.693,-1.085 -3.176,-1.085 z" /></g><g
           transform="translate(269.6772,81.1652)"
           id="g62"><path
             id="path64"
             style="fill:#e3183a;fill-opacity:1;fill-rule:nonzero;stroke:none"
             d="m 0,0 c -1.068,0 -1.904,-0.402 -2.509,-1.205 -0.605,-0.803 -0.908,-1.878 -0.908,-3.225 0,-1.488 0.303,-2.504 0.908,-3.048 0.605,-0.543 1.477,-0.814 2.615,-0.814 h 3.168 v 4.04 c 0,1.393 -0.261,2.45 -0.783,3.171 C 1.969,-0.36 1.139,0 0,0 m -4.128,-19.039 c -0.238,0 -0.356,0.119 -0.356,0.356 v 2.847 c 0,0.237 0.118,0.356 0.356,0.356 h 4.164 c 0.545,0 1.019,0.053 1.423,0.16 0.403,0.107 0.735,0.291 0.997,0.551 0.26,0.262 0.462,0.629 0.605,1.103 0.142,0.476 0.213,1.081 0.213,1.815 H -0.32 c -1.116,0 -2.106,0.125 -2.972,0.374 -0.866,0.249 -1.596,0.664 -2.188,1.246 -0.594,0.581 -1.05,1.334 -1.371,2.259 -0.32,0.926 -0.48,2.064 -0.48,3.417 0,1.447 0.202,2.686 0.606,3.719 0.404,1.031 0.939,1.874 1.605,2.526 0.666,0.652 1.439,1.127 2.32,1.424 0.879,0.296 1.807,0.445 2.782,0.445 1.07,0 2.051,-0.143 2.943,-0.427 C 3.817,2.849 4.584,2.4 5.226,1.785 5.868,1.17 6.367,0.365 6.724,-0.628 7.081,-1.622 7.26,-2.84 7.26,-4.283 v -4.009 h 2.455 c 0.474,0 0.83,-0.132 1.068,-0.396 0.237,-0.263 0.356,-0.707 0.356,-1.329 0,-0.768 -0.114,-1.265 -0.339,-1.492 -0.225,-0.228 -0.587,-0.342 -1.085,-0.342 H 7.26 v -0.782 c 0,-2.23 -0.563,-3.856 -1.688,-4.876 -1.126,-1.02 -2.758,-1.53 -4.896,-1.53 z" /></g><g
           transform="translate(286.189,87.6417)"
           id="g66"><path
             id="path68"
             style="fill:#e3183a;fill-opacity:1;fill-rule:nonzero;stroke:none"
             d="m 0,0 c -0.237,0 -0.356,0.12 -0.356,0.359 v 3.09 c 0,0.239 0.119,0.359 0.356,0.359 h 2.989 c 0.237,0 0.356,-0.12 0.356,-0.359 V 0.359 C 3.345,0.12 3.226,0 2.989,0 Z m -4.626,0 c -0.238,0 -0.356,0.12 -0.356,0.359 v 3.09 c 0,0.239 0.118,0.359 0.356,0.359 h 2.989 c 0.237,0 0.356,-0.12 0.356,-0.359 V 0.359 C -1.281,0.12 -1.4,0 -1.637,0 Z m -2.207,-18.327 c -0.474,0 -0.83,0.113 -1.067,0.341 -0.237,0.228 -0.356,0.665 -0.356,1.313 0,0.694 0.113,1.185 0.338,1.473 0.226,0.287 0.587,0.431 1.085,0.431 h 2.313 c 0.593,0 1.026,0.136 1.299,0.408 0.273,0.272 0.41,0.763 0.41,1.472 v 8.975 c 0,0.237 0.117,0.355 0.353,0.355 h 3.28 c 0.235,0 0.352,-0.119 0.352,-0.356 v -9.928 c 0,-1.543 -0.317,-2.676 -0.952,-3.399 -0.635,-0.724 -1.693,-1.085 -3.176,-1.085 z" /></g><g
           transform="translate(313.0576,82.8732)"
           id="g70"><path
             id="path72"
             style="fill:#e3183a;fill-opacity:1;fill-rule:nonzero;stroke:none"
             d="m 0,0 c -0.238,0 -0.356,0.12 -0.356,0.359 v 3.09 c 0,0.239 0.118,0.359 0.356,0.359 h 3.416 c 0.236,0 0.355,-0.12 0.355,-0.359 V 0.359 C 3.771,0.12 3.652,0 3.416,0 Z m -5.908,-5.623 c 0.119,0.214 0.297,0.237 0.534,0.071 l 2.883,-1.138 c 0.118,-0.048 0.183,-0.113 0.195,-0.196 0.012,-0.084 -0.006,-0.173 -0.054,-0.267 -0.379,-0.664 -0.741,-1.441 -1.085,-2.331 -0.343,-0.89 -0.515,-1.868 -0.515,-2.936 0,-0.925 0.147,-1.702 0.444,-2.331 0.297,-0.628 0.677,-1.132 1.139,-1.512 0.463,-0.38 0.978,-0.646 1.548,-0.801 0.569,-0.154 1.127,-0.231 1.673,-0.231 1.375,0 2.478,0.362 3.309,1.085 0.83,0.724 1.246,1.893 1.246,3.505 v 10.57 c 0,0.237 0.117,0.356 0.353,0.356 h 3.28 c 0.234,0 0.353,-0.119 0.353,-0.356 v -10.676 c 0,-1.353 -0.207,-2.539 -0.623,-3.559 -0.414,-1.02 -1.005,-1.868 -1.775,-2.545 -0.769,-0.675 -1.686,-1.179 -2.752,-1.512 -1.065,-0.332 -2.249,-0.498 -3.552,-0.498 -1.255,0 -2.409,0.166 -3.462,0.498 -1.053,0.333 -1.971,0.837 -2.752,1.512 -0.782,0.677 -1.391,1.525 -1.83,2.545 -0.438,1.02 -0.657,2.219 -0.657,3.594 0,1.281 0.202,2.563 0.606,3.844 0.403,1.281 0.901,2.384 1.494,3.309" /></g><g
           transform="translate(336.5088,81.1652)"
           id="g74"><path
             id="path76"
             style="fill:#e3183a;fill-opacity:1;fill-rule:nonzero;stroke:none"
             d="m 0,0 c -1.092,0 -1.934,-0.402 -2.526,-1.205 -0.594,-0.803 -0.89,-1.878 -0.89,-3.225 0,-1.488 0.302,-2.504 0.907,-3.048 0.605,-0.543 1.477,-0.814 2.615,-0.814 h 3.167 v 4.04 c 0,1.393 -0.26,2.45 -0.782,3.171 C 1.969,-0.36 1.139,0 0,0 m -0.32,-11.851 c -1.116,0 -2.106,0.125 -2.972,0.374 -0.866,0.249 -1.596,0.664 -2.188,1.246 -0.594,0.581 -1.05,1.334 -1.371,2.259 -0.32,0.926 -0.48,2.064 -0.48,3.417 0,1.447 0.195,2.686 0.588,3.719 0.392,1.031 0.928,1.874 1.605,2.526 0.678,0.652 1.457,1.127 2.337,1.424 0.88,0.296 1.808,0.445 2.783,0.445 1.07,0 2.051,-0.143 2.943,-0.428 C 3.817,2.847 4.584,2.396 5.227,1.779 5.868,1.162 6.367,0.355 6.724,-0.641 7.081,-1.637 7.26,-2.859 7.26,-4.306 v -8.327 c 0,-2.23 -0.563,-3.856 -1.688,-4.876 -1.126,-1.02 -2.758,-1.53 -4.896,-1.53 h -4.804 c -0.237,0 -0.356,0.119 -0.356,0.356 v 2.847 c 0,0.237 0.119,0.356 0.356,0.356 h 4.163 c 0.475,0 0.913,0.041 1.318,0.124 0.402,0.084 0.747,0.255 1.031,0.516 0.285,0.261 0.504,0.629 0.659,1.103 0.153,0.475 0.23,1.104 0.23,1.886 z" /></g><g
           transform="translate(352.665,83.7272)"
           id="g78"><path
             id="path80"
             style="fill:#e3183a;fill-opacity:1;fill-rule:nonzero;stroke:none"
             d="m 0,0 c 0,0.237 0.118,0.356 0.353,0.356 h 3.281 c 0.234,0 0.352,-0.119 0.352,-0.355 v -8.656 c 0,-0.709 0.267,-1.253 0.801,-1.631 0.533,-0.379 1.251,-0.568 2.152,-0.568 h 0.606 c 0.475,0 0.83,-0.132 1.067,-0.396 0.238,-0.263 0.356,-0.707 0.356,-1.329 0,-0.695 -0.113,-1.175 -0.338,-1.438 -0.226,-0.264 -0.587,-0.396 -1.085,-0.396 -0.807,0 -1.501,0.072 -2.082,0.216 -0.582,0.144 -1.073,0.467 -1.477,0.97 v -0.677 c 0,-1.283 -0.106,-2.405 -0.317,-3.368 -0.212,-0.961 -0.56,-1.763 -1.041,-2.405 -0.482,-0.641 -1.124,-1.122 -1.925,-1.443 -0.801,-0.32 -1.794,-0.481 -2.98,-0.481 h -1.317 c -0.237,0 -0.356,0.119 -0.356,0.356 v 2.847 c 0,0.237 0.119,0.356 0.356,0.356 h 0.783 c 0.688,0 1.221,0.119 1.601,0.355 0.38,0.238 0.659,0.587 0.837,1.05 0.178,0.463 0.284,1.021 0.32,1.673 0.035,0.652 0.053,1.405 0.053,2.259 z" /></g><g
           transform="translate(366.2236,62.4821)"
           id="g82"><path
             id="path84"
             style="fill:#e3183a;fill-opacity:1;fill-rule:nonzero;stroke:none"
             d="m 0,0 c -0.237,0 -0.355,0.12 -0.355,0.359 v 3.089 c 0,0.24 0.118,0.36 0.355,0.36 h 2.989 c 0.238,0 0.356,-0.12 0.356,-0.36 V 0.359 C 3.345,0.12 3.227,0 2.989,0 Z m -4.626,0 c -0.237,0 -0.356,0.12 -0.356,0.359 v 3.089 c 0,0.24 0.119,0.36 0.356,0.36 h 2.989 c 0.237,0 0.356,-0.12 0.356,-0.36 V 0.359 C -1.281,0.12 -1.4,0 -1.637,0 Z m -1.353,6.833 c -0.474,0 -0.83,0.113 -1.067,0.341 -0.237,0.227 -0.356,0.665 -0.356,1.312 0,0.695 0.113,1.186 0.339,1.473 0.225,0.288 0.586,0.432 1.084,0.432 h 2.314 c 0.593,0 1.025,0.136 1.299,0.408 0.272,0.272 0.409,0.763 0.409,1.472 v 8.975 c 0,0.236 0.117,0.355 0.353,0.355 h 3.28 c 0.234,0 0.352,-0.119 0.352,-0.356 V 11.316 C 2.028,9.774 1.711,8.641 1.076,7.918 0.441,7.194 -0.617,6.833 -2.1,6.833 Z" /></g><g
           transform="translate(379.8535,69.6705)"
           id="g86"><path
             id="path88"
             style="fill:#e3183a;fill-opacity:1;fill-rule:nonzero;stroke:none"
             d="m 0,0 c 0,-0.237 -0.118,-0.356 -0.353,-0.356 h -3.28 c -0.235,0 -0.352,0.119 -0.352,0.356 v 23.487 c 0,0.237 0.117,0.356 0.352,0.356 h 3.28 C -0.118,23.843 0,23.724 0,23.487 Z m -8.434,27.046 c 0.213,0.854 0.576,1.5 1.085,1.939 0.511,0.439 1.109,0.659 1.797,0.659 0.522,0 1.073,-0.102 1.656,-0.303 0.581,-0.202 1.156,-0.415 1.725,-0.64 0.569,-0.226 1.133,-0.44 1.691,-0.641 0.557,-0.202 1.085,-0.303 1.584,-0.303 0.378,0 0.64,0.09 0.782,0.267 0.142,0.179 0.214,0.493 0.214,0.943 0,0.238 0.118,0.356 0.355,0.356 h 1.317 c 0.237,0 0.356,-0.118 0.356,-0.356 0,-1.067 -0.232,-1.892 -0.693,-2.473 -0.463,-0.581 -1.146,-0.871 -2.047,-0.871 -0.641,0 -1.263,0.094 -1.868,0.284 -0.605,0.19 -1.193,0.391 -1.762,0.605 -0.57,0.214 -1.11,0.415 -1.619,0.605 -0.511,0.19 -0.967,0.285 -1.37,0.285 -0.238,0 -0.463,-0.066 -0.676,-0.196 -0.214,-0.131 -0.38,-0.397 -0.498,-0.801 -0.072,-0.237 -0.226,-0.32 -0.463,-0.249 l -1.317,0.427 c -0.213,0.071 -0.296,0.226 -0.249,0.463" /></g></g></g></g></svg>