<?xml version="1.0" encoding="UTF-8"?>
<svg id="katman_1" data-name="katman 1" xmlns="http://www.w3.org/2000/svg" width="449.25mm" height="242.46mm" viewBox="0 0 1273.45 687.29">
  <defs>
    <style>
      .cls-1 {
        fill: #417d63;
      }
    </style>
  </defs>
  <g>
    <path d="M338.72,255.17c.67.66,1,1.46,1,2.39v16.46c0,2.66-.23,4.87-.7,6.63-.47,1.77-1.2,3.24-2.2,4.44-.14.13-.24.25-.3.35-.07.1-.17.22-.3.35-1.54,1.53-3.36,2.48-5.46,2.84-2.1.37-4.19.55-6.25.55h-15.42c-4.91,0-9.05-.35-12.43-1.04-3.38-.7-6.23-1.81-8.55-3.33-3.78-2.52-6.7-5.87-8.75-10.05-2.06-4.18-3.08-8.89-3.08-14.13s1.03-9.55,3.09-13.73c2.06-4.18,4.98-7.49,8.77-9.94h.1c2.39-1.53,5.23-2.64,8.52-3.34,3.29-.69,7.42-1.04,12.4-1.04h29.69c.2,0,.36.07.5.2.13.13.2.3.2.5-.07,1.39-.3,2.95-.7,4.69-.4,1.74-1.27,3.31-2.61,4.68-1.54,1.51-3.36,2.45-5.46,2.82-2.1.36-4.19.54-6.25.54h-14.27c-6.98,0-11.84,1.06-14.56,3.19-2.8,2.13-4.19,5.92-4.19,11.37,0,2.93.31,5.32.95,7.19.63,1.86,1.65,3.36,3.04,4.49,1.4,1.13,3.27,1.94,5.63,2.44,2.36.5,5.41.75,9.13.75h14.27v-8.05h-6.57c-1.92,0-3.9-.19-5.92-.55-2.02-.37-3.73-1.29-5.12-2.76-1.86-1.8-2.95-4.87-3.28-9.22,0-.2.06-.37.2-.5.13-.13.29-.2.5-.2h32.01c.93,0,1.73.33,2.4,1"/>
    <path d="M407.45,236.87c3.78,2.45,6.7,5.77,8.75,9.95,2.06,4.18,3.08,8.75,3.08,13.72s-1.03,9.86-3.08,14.07c-2.06,4.21-4.97,7.58-8.75,10.1-2.32,1.52-5.16,2.64-8.5,3.33-3.35.7-7.51,1.04-12.48,1.04h-7.66c-4.91,0-9.05-.35-12.43-1.04-3.38-.69-6.23-1.81-8.55-3.33-3.78-2.52-6.7-5.89-8.75-10.1-2.06-4.21-3.08-8.9-3.08-14.07s1.04-9.55,3.13-13.72c2.09-4.18,4.99-7.5,8.7-9.95h.1c2.39-1.52,5.22-2.64,8.5-3.33,3.29-.69,7.41-1.04,12.38-1.04h7.66c4.97,0,9.1.35,12.38,1.04,3.28.7,6.15,1.81,8.6,3.33M399.98,272.18c1.39-1.13,2.42-2.62,3.09-4.48.66-1.86,1-4.24,1-7.16s-.35-5.09-1.05-6.91c-.7-1.82-1.75-3.3-3.14-4.42-2.79-2.12-7.61-3.19-14.46-3.19h-5.68c-6.85,0-11.63,1.06-14.36,3.19-2.79,2.12-4.19,5.9-4.19,11.34,0,2.92.31,5.31.94,7.16.63,1.86,1.65,3.35,3.04,4.48,1.4,1.13,3.26,1.94,5.58,2.44s5.32.74,8.98.74h5.78c3.59,0,6.54-.24,8.87-.74,2.33-.5,4.19-1.31,5.59-2.44M377.71,217.87v11.24c0,.66-.33.99-.99.99h-10.74c-.67,0-.99-.33-.99-.99v-11.24c0-.66.33-.99.99-.99h10.74c.66,0,.99.33.99.99M399.79,217.87v11.24c0,.66-.33.99-1,.99h-10.84c-.66,0-.99-.33-.99-.99v-11.24c0-.66.33-.99.99-.99h10.84c.66,0,1,.33,1,.99"/>
    <path d="M484.33,288.49c0,.2-.06.36-.2.5-.13.2-.3.3-.5.3h-51.72c-1.13-.2-2.15-.76-3.09-1.69-1.13-1.06-1.76-2.34-1.89-3.83-.13-1.49.23-2.86,1.09-4.13,0-.06.03-.1.1-.1l31.43-33.42h-16.51c-2.05,0-4.13-.18-6.22-.55-2.09-.37-3.9-1.31-5.42-2.84-1.32-1.39-2.19-2.97-2.59-4.72-.4-1.76-.63-3.34-.7-4.73,0-.2.06-.36.2-.5.13-.13.3-.2.5-.2h15.32c2.85,0,5.77.02,8.75.05,2.98.04,5.9.05,8.75.05h15.12c1.72,0,3.19.61,4.42,1.84,1.23,1.23,1.84,2.7,1.84,4.43s-.59,3.18-1.79,4.37c-2.52,2.65-4.74,5.01-6.67,7.06-1.92,2.06-4.08,4.34-6.46,6.86-2.39,2.52-4.69,4.96-6.92,7.31-2.22,2.36-4.27,4.53-6.17,6.52-1.89,1.99-3.3,3.48-4.23,4.47h18.4c2.05,0,4.14.2,6.27.6,2.12.4,3.94,1.36,5.47,2.88,1.33,1.33,2.19,2.89,2.59,4.68.4,1.79.66,3.38.79,4.77"/>
    <path d="M553.56,232.49c.2,0,.36.07.5.2.13.13.2.3.2.5v27.65c0,5.17-1.03,9.83-3.09,13.98-2.06,4.14-4.97,7.44-8.75,9.9-2.19,1.46-4.83,2.55-7.91,3.28-3.09.73-6.85,1.13-11.29,1.19h-.4c-4.9.07-9.05-.26-12.43-.99-3.38-.73-6.23-1.86-8.55-3.38-3.78-2.45-6.68-5.77-8.7-9.95-2.02-4.18-3.07-8.85-3.13-14.03v-27.55c0-.2.06-.36.2-.5.26-.13.43-.2.5-.2,1.52.07,3.3.3,5.32.7,2.03.4,3.79,1.26,5.32,2.59,1.72,1.53,2.8,3.33,3.23,5.42.43,2.09.65,4.16.65,6.22v13.33c0,5.11,1.16,8.72,3.48,10.84,1.13,1.13,2.68,2.02,4.67,2.69,1.99.66,4.47,1.03,7.46,1.09,3.58.07,6.52-.2,8.8-.79,2.29-.6,4.09-1.46,5.42-2.59,1.39-1.13,2.4-2.59,3.03-4.38.63-1.79.94-4.11.94-6.96v-13.33c0-2.06.23-4.11.7-6.17.46-2.06,1.56-3.84,3.28-5.37.73-.66,1.54-1.21,2.44-1.64.89-.43,1.82-.76,2.78-.99.96-.23,1.89-.4,2.78-.5.9-.1,1.74-.18,2.54-.25M517.75,217.87v11.24c0,.66-.33.99-1,.99h-10.74c-.66,0-.99-.33-.99-.99v-11.24c0-.66.33-.99.99-.99h10.74c.66,0,1,.33,1,.99M539.84,217.87v11.24c0,.66-.34.99-1,.99h-10.84c-.66,0-.99-.33-.99-.99v-11.24c0-.66.33-.99.99-.99h10.84c.66,0,1,.33,1,.99"/>
    <path d="M628.66,232.79c.13.26.16.46.1.6-.07,1.33-.3,2.88-.7,4.68-.4,1.79-1.26,3.35-2.58,4.67-1.53,1.52-3.34,2.47-5.42,2.83-2.09.36-4.16.55-6.21.55h-11.44v28.25c0,2.06-.21,4.13-.65,6.22-.43,2.09-1.51,3.9-3.23,5.42-1.53,1.33-3.3,2.19-5.32,2.59-2.03.4-3.8.63-5.32.7-.26,0-.43-.06-.5-.2-.13-.13-.2-.3-.2-.5v-42.47l-24.27-.1c-.2,0-.36-.06-.5-.2-.13-.13-.2-.3-.2-.5.13-1.39.4-2.97.79-4.72.4-1.76,1.26-3.3,2.59-4.63,1.46-1.53,3.22-2.47,5.27-2.83,2.06-.36,4.14-.55,6.27-.55h50.92c.13,0,.33.07.6.2"/>
    <path d="M695.09,236.87c3.78,2.45,6.7,5.77,8.75,9.95,2.05,4.18,3.08,8.75,3.08,13.72s-1.03,9.86-3.08,14.08c-2.05,4.21-4.97,7.58-8.75,10.1-2.32,1.52-5.16,2.64-8.5,3.33-3.35.7-7.51,1.04-12.48,1.04h-7.66c-4.91,0-9.05-.35-12.43-1.04-3.38-.69-6.23-1.81-8.56-3.33-3.78-2.52-6.7-5.88-8.75-10.1-2.06-4.21-3.08-8.9-3.08-14.08s1.04-9.55,3.13-13.72c2.09-4.18,4.99-7.49,8.7-9.95h.1c2.39-1.53,5.22-2.64,8.5-3.34,3.29-.69,7.41-1.04,12.38-1.04h7.66c4.97,0,9.1.35,12.38,1.04,3.28.7,6.15,1.81,8.6,3.34M687.63,272.18c1.39-1.13,2.42-2.62,3.09-4.47.66-1.86,1-4.24,1-7.16s-.35-5.09-1.05-6.91c-.7-1.82-1.74-3.3-3.14-4.43-2.79-2.12-7.61-3.19-14.46-3.19h-5.68c-6.85,0-11.63,1.06-14.36,3.19-2.79,2.12-4.19,5.9-4.19,11.34,0,2.92.31,5.31.94,7.16.63,1.86,1.65,3.35,3.04,4.47,1.4,1.13,3.26,1.94,5.58,2.44,2.33.5,5.31.74,8.97.74h5.78c3.59,0,6.55-.25,8.87-.74,2.33-.5,4.19-1.31,5.59-2.44"/>
    <path d="M773.37,283.91c.13.13.2.3.2.5,0,.27-.1.43-.3.5-.99.93-2.26,1.86-3.78,2.78-1.53.93-3.25,1.4-5.17,1.4h-.1c-2.12,0-4.04-.6-5.77-1.79-1.72-1.19-3.32-2.55-4.78-4.08l-15.22-15.72h-10.54v6.76c0,2.05-.22,4.13-.65,6.22-.43,2.09-1.5,3.9-3.23,5.42-1.53,1.32-3.3,2.17-5.32,2.54-2.02.36-3.8.61-5.32.74-.06,0-.23-.06-.5-.2-.13-.13-.2-.3-.2-.5v-55.2c0-.13.07-.33.2-.6.26-.13.43-.2.5-.2.8.07,1.64.15,2.54.25.9.1,1.82.27,2.79.5.96.23,1.89.56,2.78.99.9.43,1.74.98,2.54,1.64,1.73,1.53,2.8,3.34,3.23,5.42.43,2.09.65,4.13.65,6.12v6.67h8.85l15.12-15.72c1.45-1.46,3.05-2.8,4.77-4.03,1.72-1.23,3.65-1.84,5.77-1.84h.1c1.92,0,3.65.47,5.17,1.39,1.52.93,2.78,1.86,3.78,2.78.2.2.3.36.3.5s-.07.34-.2.6l-21.58,22.18,23.37,23.97Z"/>
  </g>
  <g>
    <g>
      <path d="M279.04,469.64c-1.81,0-3.28-1.47-3.28-3.28v-139.05c0-1.81,1.47-3.28,3.28-3.28h142.44c1.81,0,3.28,1.47,3.28,3.28v6.71c0,12.22-9.94,22.16-22.16,22.16h-92.41c-1.26,0-2.28,1.02-2.28,2.28v20.03c0,1.26,1.02,2.28,2.28,2.28h94.83c1.81,0,3.28,1.47,3.28,3.28v6.71c0,12.22-9.94,22.16-22.16,22.16h-75.95c-1.26,0-2.28,1.02-2.28,2.28v32.29c0,12.22-9.94,22.16-22.16,22.16h-6.71Z"/>
      <path class="cls-1" d="M421.48,324.54c1.53,0,2.78,1.24,2.78,2.78v6.71c0,11.96-9.7,21.66-21.66,21.66h-92.41c-1.53,0-2.78,1.24-2.78,2.78v20.03c0,1.53,1.24,2.78,2.78,2.78h94.83c1.53,0,2.78,1.24,2.78,2.78v6.71c0,11.96-9.7,21.66-21.66,21.66h-75.95c-1.53,0-2.78,1.24-2.78,2.78v32.29c0,11.96-9.7,21.66-21.66,21.66h-6.71c-1.53,0-2.78-1.24-2.78-2.78v-139.05c0-1.53,1.24-2.78,2.78-2.78h142.44M421.48,323.54h-142.44c-2.08,0-3.78,1.69-3.78,3.78v139.05c0,2.08,1.69,3.78,3.78,3.78h6.71c12.5,0,22.66-10.17,22.66-22.66v-32.29c0-.98.8-1.78,1.78-1.78h75.95c12.5,0,22.66-10.17,22.66-22.66v-6.71c0-2.08-1.69-3.78-3.78-3.78h-94.83c-.98,0-1.78-.8-1.78-1.78v-20.03c0-.98.8-1.78,1.78-1.78h92.41c12.5,0,22.66-10.17,22.66-22.66v-6.71c0-2.08-1.69-3.78-3.78-3.78h0Z"/>
    </g>
    <g>
      <path d="M444.86,469.64c-1.81,0-3.28-1.47-3.28-3.28v-139.05c0-1.81,1.47-3.28,3.28-3.28h6.71c12.22,0,22.16,9.94,22.16,22.16v89.02c0,1.26,1.02,2.28,2.28,2.28h86.27c12.22,0,22.16,9.94,22.16,22.16v6.71c0,1.81-1.47,3.28-3.28,3.28h-136.3Z"/>
      <path class="cls-1" d="M451.57,324.54c11.96,0,21.66,9.7,21.66,21.66v89.02c0,1.53,1.24,2.78,2.78,2.78h86.27c11.96,0,21.66,9.7,21.66,21.66v6.71c0,1.53-1.24,2.78-2.78,2.78h-136.3c-1.53,0-2.78-1.24-2.78-2.78v-139.05c0-1.53,1.24-2.78,2.78-2.78h6.71M451.57,323.54h-6.71c-2.08,0-3.78,1.69-3.78,3.78v139.05c0,2.08,1.69,3.78,3.78,3.78h136.3c2.08,0,3.78-1.69,3.78-3.78v-6.71c0-12.5-10.17-22.66-22.66-22.66h-86.27c-.98,0-1.78-.8-1.78-1.78v-89.02c0-12.5-10.17-22.66-22.66-22.66h0Z"/>
    </g>
    <g>
      <path d="M646.3,469.64c-26.23,0-47.57-21.34-47.57-47.57v-94.77c0-1.81,1.47-3.28,3.28-3.28h6.71c12.22,0,22.16,9.94,22.16,22.16v75.88c0,8.5,6.92,15.42,15.42,15.42h64.39c8.5,0,15.42-6.92,15.42-15.42v-75.88c0-12.22,9.94-22.16,22.17-22.16h6.71c1.81,0,3.28,1.47,3.28,3.28v94.76c0,26.23-21.34,47.57-47.57,47.57h-64.39Z"/>
      <path class="cls-1" d="M754.97,324.54c1.53,0,2.78,1.24,2.78,2.78v94.76c0,25.89-21.18,47.07-47.07,47.07h-64.39c-25.89,0-47.07-21.18-47.07-47.07v-94.76c0-1.53,1.24-2.78,2.78-2.78h6.71c11.96,0,21.66,9.7,21.66,21.66v40.21s0,35.67,0,35.67c0,8.76,7.16,15.92,15.92,15.92h64.39c8.76,0,15.92-7.16,15.92-15.92v-75.88c0-11.96,9.7-21.66,21.67-21.66h6.71M754.97,323.54h-6.71c-12.5,0-22.66,10.17-22.66,22.66v40.21s0,35.67,0,35.67c0,8.23-6.69,14.92-14.92,14.92h-64.39c-8.23,0-14.92-6.69-14.92-14.92v-75.88c0-12.5-10.17-22.66-22.66-22.66h-6.71c-2.08,0-3.78,1.69-3.78,3.78v94.76c0,26.5,21.56,48.07,48.07,48.07h64.39c26.5,0,48.07-21.56,48.07-48.07v-94.76c0-2.08-1.69-3.78-3.78-3.78h0Z"/>
    </g>
    <g>
      <path d="M905.03,469.64c-.82,0-1.61-.34-2.17-.94l-42.63-45.03c-.38-.4-.89-.62-1.45-.62s-1.07.22-1.45.62l-42.63,45.03c-.56.59-1.36.94-2.17.94h-36.99c-1.23,0-2.29-.71-2.77-1.85-.47-1.14-.22-2.39.65-3.26l66.3-66.3c.78-.78.78-2.04,0-2.82l-66.3-66.3c-.87-.87-1.12-2.12-.65-3.26.47-1.14,1.53-1.85,2.77-1.85h36.99c.82,0,1.61.34,2.17.94l42.63,45.03c.38.4.89.62,1.45.62s1.07-.22,1.45-.62l42.63-45.03c.56-.59,1.35-.94,2.17-.94h36.99c1.23,0,2.29.71,2.77,1.85.47,1.14.22,2.39-.65,3.26l-66.3,66.3c-.78.78-.78,2.04,0,2.82l66.3,66.3c.87.87,1.12,2.12.65,3.26-.47,1.14-1.53,1.85-2.77,1.85h-36.99Z"/>
      <path class="cls-1" d="M942.02,324.51c2.22,0,3.33,2.69,1.76,4.26l-66.3,66.3c-.97.97-.97,2.55,0,3.53l66.3,66.3c1.57,1.57.46,4.26-1.76,4.26h-36.99c-.69,0-1.34-.28-1.81-.78l-42.63-45.03c-.49-.52-1.15-.78-1.81-.78s-1.32.26-1.81.78l-42.63,45.03c-.47.5-1.13.78-1.81.78h-36.99c-2.22,0-3.33-2.69-1.76-4.26l66.3-66.3c.97-.97.97-2.55,0-3.53l-66.3-66.3c-1.57-1.57-.46-4.26,1.76-4.26h36.99c.69,0,1.34.28,1.81.78l42.63,45.03c.49.52,1.15.78,1.81.78s1.32-.26,1.81-.78l42.63-45.03c.47-.5,1.13-.78,1.81-.78h36.99M942.02,323.51h-36.99c-.96,0-1.88.4-2.54,1.09l-42.63,45.03c-.28.3-.67.47-1.08.47s-.8-.17-1.08-.47l-42.63-45.03c-.66-.69-1.58-1.09-2.54-1.09h-36.99c-1.44,0-2.68.83-3.23,2.16-.55,1.33-.26,2.79.76,3.81l66.3,66.3c.28.28.44.66.44,1.06s-.16.77-.44,1.06l-66.3,66.3c-1.02,1.02-1.31,2.48-.76,3.81s1.79,2.16,3.23,2.16h36.99c.96,0,1.88-.4,2.54-1.09l42.63-45.03c.28-.3.67-.47,1.08-.47s.8.17,1.08.47l42.63,45.03c.66.69,1.58,1.09,2.54,1.09h36.99c1.44,0,2.68-.83,3.23-2.16s.26-2.79-.76-3.81l-66.3-66.3c-.58-.58-.58-1.53,0-2.11l66.3-66.3c1.02-1.02,1.31-2.48.76-3.81-.55-1.33-1.79-2.16-3.23-2.16h0Z"/>
    </g>
  </g>
  <path d="M993.15,470.41h-23.06c-2.23,0-4.04-1.81-4.04-4.04v-23.06c0-2.23,1.81-4.04,4.04-4.04h23.06c2.23,0,4.04,1.81,4.04,4.04v23.06c0,2.23-1.81,4.04-4.04,4.04Z"/>
</svg>