<?xml version="1.0" encoding="UTF-8"?>
<svg id="katman_1" data-name="katman 1" xmlns="http://www.w3.org/2000/svg" width="449.25mm" height="242.46mm" viewBox="0 0 1273.45 687.29">
  <g>
    <path d="M437.27,334.74c6.42,2.12,11.11,5.56,14.07,10.31,2.95,4.76,4.43,11.25,4.43,19.47v3.47c0,6.94-1.03,12.63-3.08,17.06-1.84,3.97-4.66,7.14-8.46,9.51-.55.35-.51,1.17.08,1.46,5.05,2.44,8.8,5.98,11.27,10.62,2.7,5.08,4.05,11.86,4.05,20.34v3.86c0,8.87-1.48,15.87-4.43,21.01-2.96,5.14-7.65,8.87-14.07,11.18-6.43,2.31-15.04,3.47-25.83,3.47h-93.62c-.47,0-.84-.38-.84-.84v-133.26c0-.47.38-.84.84-.84h89.76c10.8,0,19.4,1.06,25.83,3.18ZM407.58,385.53c3.47,0,5.94-.64,7.42-1.93,1.48-1.28,2.22-3.53,2.22-6.75v-3.86c0-3.21-.74-5.46-2.22-6.75-1.48-1.28-3.95-1.93-7.42-1.93h-47.35c-.47,0-.84.38-.84.84v19.52c0,.47.38.84.84.84h47.35ZM365.94,444.33c2.18-4.24,4.79-7.07,7.81-8.48,3.02-1.41,8-2.12,14.94-2.12h22.75c3.47,0,5.94-.64,7.42-1.93,1.48-1.28,2.22-3.53,2.22-6.75v-3.86c0-3.21-.74-5.46-2.22-6.75-1.48-1.28-3.95-1.93-7.42-1.93h-51.21c-.47,0-.84.38-.84.84v40.06c0,.88,1.18,1.17,1.59.39l4.96-9.49Z"/>
    <path d="M497.31,331.56c13.26,0,24.01,10.75,24.01,24.01v58.88c0,6.94,1.48,11.89,4.43,14.84,2.95,2.96,7.9,4.43,14.84,4.43h26.99c6.94,0,11.89-1.48,14.84-4.43,2.95-2.96,4.43-7.9,4.43-14.84l.05-58.9c.01-13.25,10.76-23.99,24.01-23.99h13.7c.48,0,.86.39.86.86l-.07,87.82c0,11.7-1.99,21.04-5.98,28.05-3.99,7.01-10.31,12.11-18.99,15.33s-20.27,4.82-34.8,4.82h-23.13c-14.52,0-26.12-1.61-34.8-4.82s-15.01-8.32-18.99-15.33c-3.98-7-5.98-16.35-5.98-28.05v-87.82c0-.47.38-.86.86-.86h13.68Z"/>
    <path d="M688.15,466.5h-36.8c-.49,0-.88-.39-.88-.88v-68.13c0-5.4.51-9.67,1.54-12.82,1.03-3.15,2.83-5.75,5.4-7.81,2.57-2.05,6.42-4.05,11.57-5.98l7.8-2.93c.92-.34.67-1.7-.31-1.7h-25.12c-.49,0-.88-.39-.88-.88v-32.94c0-.49.39-.88.88-.88h36.8c.49,0,.88.39.88.88v133.18c0,.49-.39.88-.88.88Z"/>
    <path d="M752.65,354.06v103.77l4.24-9.45c2.05-4.63,4.08-8.1,6.07-10.41,1.99-2.31,4.46-3.92,7.42-4.82,2.95-.9,6.94-1.35,11.95-1.35h47.42v34.7h-115.66v-134.09c0-.47.38-.85.85-.85h15.2c12.43,0,22.5,10.07,22.5,22.5Z"/>
    <path d="M849.03,332.42c0-.47.38-.86.86-.86h74.32c14.52,0,26.12,1.61,34.8,4.82,8.67,3.21,15,8.32,18.99,15.33,3.98,7.01,5.98,16.36,5.98,28.05v38.55c0,11.7-1.99,21.04-5.98,28.05-3.99,7.01-10.31,12.11-18.99,15.33-8.67,3.21-20.27,4.82-34.8,4.82h-74.32c-.47,0-.86-.38-.86-.86v-133.22ZM892.21,446.26c1.67-3.98,3.44-7,5.3-9.06,1.86-2.05,4.21-3.47,7.04-4.24,2.83-.77,6.68-1.16,11.57-1.16h10.02c6.94,0,11.89-1.48,14.84-4.43,2.95-2.96,4.43-7.9,4.43-14.84v-26.99c0-6.94-1.48-11.89-4.43-14.84-2.96-2.96-7.9-4.43-14.84-4.43h-37.7c-.47,0-.86.38-.86.86v85.63c0,.93,1.27,1.2,1.65.34l2.98-6.83Z"/>
  </g>
  <g>
    <path d="M377.58,257.16c.67.66,1,1.46,1,2.39v16.46c0,2.66-.23,4.87-.7,6.63-.47,1.77-1.2,3.24-2.2,4.44-.14.13-.24.25-.3.35-.07.1-.17.22-.3.35-1.54,1.53-3.36,2.48-5.46,2.84-2.1.37-4.19.55-6.25.55h-15.42c-4.91,0-9.05-.35-12.43-1.04-3.38-.7-6.23-1.81-8.55-3.33-3.78-2.52-6.7-5.87-8.75-10.05-2.06-4.18-3.08-8.89-3.08-14.13s1.03-9.55,3.09-13.73c2.06-4.18,4.98-7.49,8.77-9.94h.1c2.39-1.53,5.23-2.64,8.52-3.34,3.29-.69,7.42-1.04,12.4-1.04h29.69c.2,0,.36.07.5.2.13.13.2.3.2.5-.07,1.39-.3,2.95-.7,4.69-.4,1.74-1.27,3.31-2.61,4.68-1.54,1.51-3.36,2.45-5.46,2.82-2.1.36-4.19.54-6.25.54h-14.27c-6.98,0-11.84,1.06-14.56,3.19-2.8,2.13-4.19,5.92-4.19,11.37,0,2.93.31,5.32.95,7.19.63,1.86,1.65,3.36,3.04,4.49,1.4,1.13,3.27,1.94,5.63,2.44,2.36.5,5.41.75,9.13.75h14.27v-8.05h-6.57c-1.92,0-3.9-.19-5.92-.55-2.02-.37-3.73-1.29-5.12-2.76-1.86-1.8-2.95-4.87-3.28-9.22,0-.2.06-.37.2-.5.13-.13.29-.2.5-.2h32.01c.93,0,1.73.33,2.4,1"/>
    <path d="M446.32,238.86c3.78,2.45,6.7,5.77,8.75,9.95,2.06,4.18,3.08,8.75,3.08,13.72s-1.03,9.86-3.08,14.07c-2.06,4.21-4.97,7.58-8.75,10.1-2.32,1.52-5.16,2.64-8.5,3.33-3.35.7-7.51,1.04-12.48,1.04h-7.66c-4.91,0-9.05-.35-12.43-1.04-3.38-.69-6.23-1.81-8.55-3.33-3.78-2.52-6.7-5.89-8.75-10.1-2.06-4.21-3.08-8.9-3.08-14.07s1.04-9.55,3.13-13.72c2.09-4.18,4.99-7.5,8.7-9.95h.1c2.39-1.52,5.22-2.64,8.5-3.33,3.29-.69,7.41-1.04,12.38-1.04h7.66c4.97,0,9.1.35,12.38,1.04,3.28.7,6.15,1.81,8.6,3.33M438.85,274.17c1.39-1.13,2.42-2.62,3.09-4.48.66-1.86,1-4.24,1-7.16s-.35-5.09-1.05-6.91c-.7-1.82-1.75-3.3-3.14-4.42-2.79-2.12-7.61-3.19-14.46-3.19h-5.68c-6.85,0-11.63,1.06-14.36,3.19-2.79,2.12-4.19,5.9-4.19,11.34,0,2.92.31,5.31.94,7.16.63,1.86,1.65,3.35,3.04,4.48,1.4,1.13,3.26,1.94,5.58,2.44s5.32.74,8.98.74h5.78c3.59,0,6.54-.24,8.87-.74,2.33-.5,4.19-1.31,5.59-2.44M416.58,219.86v11.24c0,.66-.33.99-.99.99h-10.74c-.67,0-.99-.33-.99-.99v-11.24c0-.66.33-.99.99-.99h10.74c.66,0,.99.33.99.99M438.66,219.86v11.24c0,.66-.33.99-1,.99h-10.84c-.66,0-.99-.33-.99-.99v-11.24c0-.66.33-.99.99-.99h10.84c.66,0,1,.33,1,.99"/>
    <path d="M523.2,290.48c0,.2-.06.36-.2.5-.13.2-.3.3-.5.3h-51.72c-1.13-.2-2.15-.76-3.09-1.69-1.13-1.06-1.76-2.34-1.89-3.83-.13-1.49.23-2.86,1.09-4.13,0-.06.03-.1.1-.1l31.43-33.42h-16.51c-2.05,0-4.13-.18-6.22-.55-2.09-.37-3.9-1.31-5.42-2.84-1.32-1.39-2.19-2.97-2.59-4.72-.4-1.76-.63-3.34-.7-4.73,0-.2.06-.36.2-.5.13-.13.3-.2.5-.2h15.32c2.85,0,5.77.02,8.75.05,2.98.04,5.9.05,8.75.05h15.12c1.72,0,3.19.61,4.42,1.84,1.23,1.23,1.84,2.7,1.84,4.43s-.59,3.18-1.79,4.37c-2.52,2.65-4.74,5.01-6.67,7.06-1.92,2.06-4.08,4.34-6.46,6.86-2.39,2.52-4.69,4.96-6.92,7.31-2.22,2.36-4.27,4.53-6.17,6.52-1.89,1.99-3.3,3.48-4.23,4.47h18.4c2.05,0,4.14.2,6.27.6,2.12.4,3.94,1.36,5.47,2.88,1.33,1.33,2.19,2.89,2.59,4.68.4,1.79.66,3.38.79,4.77"/>
    <path d="M592.43,234.48c.2,0,.36.07.5.2.13.13.2.3.2.5v27.65c0,5.17-1.03,9.83-3.09,13.98-2.06,4.14-4.97,7.44-8.75,9.9-2.19,1.46-4.83,2.55-7.91,3.28-3.09.73-6.85,1.13-11.29,1.19h-.4c-4.9.07-9.05-.26-12.43-.99-3.38-.73-6.23-1.86-8.55-3.38-3.78-2.45-6.68-5.77-8.7-9.95-2.02-4.18-3.07-8.85-3.13-14.03v-27.55c0-.2.06-.36.2-.5.26-.13.43-.2.5-.2,1.52.07,3.3.3,5.32.7,2.03.4,3.79,1.26,5.32,2.59,1.72,1.53,2.8,3.33,3.23,5.42.43,2.09.65,4.16.65,6.22v13.33c0,5.11,1.16,8.72,3.48,10.84,1.13,1.13,2.68,2.02,4.67,2.69,1.99.66,4.47,1.03,7.46,1.09,3.58.07,6.52-.2,8.8-.79,2.29-.6,4.09-1.46,5.42-2.59,1.39-1.13,2.4-2.59,3.03-4.38.63-1.79.94-4.11.94-6.96v-13.33c0-2.06.23-4.11.7-6.17.46-2.06,1.56-3.84,3.28-5.37.73-.66,1.54-1.21,2.44-1.64.89-.43,1.82-.76,2.78-.99.96-.23,1.89-.4,2.78-.5.9-.1,1.74-.18,2.54-.25M556.62,219.86v11.24c0,.66-.33.99-1,.99h-10.74c-.66,0-.99-.33-.99-.99v-11.24c0-.66.33-.99.99-.99h10.74c.66,0,1,.33,1,.99M578.7,219.86v11.24c0,.66-.34.99-1,.99h-10.84c-.66,0-.99-.33-.99-.99v-11.24c0-.66.33-.99.99-.99h10.84c.66,0,1,.33,1,.99"/>
    <path d="M667.52,234.78c.13.26.16.46.1.6-.07,1.33-.3,2.88-.7,4.68-.4,1.79-1.26,3.35-2.58,4.67-1.53,1.52-3.34,2.47-5.42,2.83-2.09.36-4.16.55-6.21.55h-11.44v28.25c0,2.06-.21,4.13-.65,6.22-.43,2.09-1.51,3.9-3.23,5.42-1.53,1.33-3.3,2.19-5.32,2.59-2.03.4-3.8.63-5.32.7-.26,0-.43-.06-.5-.2-.13-.13-.2-.3-.2-.5v-42.47l-24.27-.1c-.2,0-.36-.06-.5-.2-.13-.13-.2-.3-.2-.5.13-1.39.4-2.97.79-4.72.4-1.76,1.26-3.3,2.59-4.63,1.46-1.53,3.22-2.47,5.27-2.83,2.06-.36,4.14-.55,6.27-.55h50.92c.13,0,.33.07.6.2"/>
    <path d="M733.96,238.86c3.78,2.45,6.7,5.77,8.75,9.95,2.05,4.18,3.08,8.75,3.08,13.72s-1.03,9.86-3.08,14.08c-2.05,4.21-4.97,7.58-8.75,10.1-2.32,1.52-5.16,2.64-8.5,3.33-3.35.7-7.51,1.04-12.48,1.04h-7.66c-4.91,0-9.05-.35-12.43-1.04-3.38-.69-6.23-1.81-8.56-3.33-3.78-2.52-6.7-5.88-8.75-10.1-2.06-4.21-3.08-8.9-3.08-14.08s1.04-9.55,3.13-13.72c2.09-4.18,4.99-7.49,8.7-9.95h.1c2.39-1.53,5.22-2.64,8.5-3.34,3.29-.69,7.41-1.04,12.38-1.04h7.66c4.97,0,9.1.35,12.38,1.04,3.28.7,6.15,1.81,8.6,3.34M726.49,274.17c1.39-1.13,2.42-2.62,3.09-4.47.66-1.86,1-4.24,1-7.16s-.35-5.09-1.05-6.91c-.7-1.82-1.74-3.3-3.14-4.43-2.79-2.12-7.61-3.19-14.46-3.19h-5.68c-6.85,0-11.63,1.06-14.36,3.19-2.79,2.12-4.19,5.9-4.19,11.34,0,2.92.31,5.31.94,7.16.63,1.86,1.65,3.35,3.04,4.47,1.4,1.13,3.26,1.94,5.58,2.44,2.33.5,5.31.74,8.97.74h5.78c3.59,0,6.55-.25,8.87-.74,2.33-.5,4.19-1.31,5.59-2.44"/>
    <path d="M812.24,285.9c.13.13.2.3.2.5,0,.27-.1.43-.3.5-.99.93-2.26,1.86-3.78,2.78-1.53.93-3.25,1.4-5.17,1.4h-.1c-2.12,0-4.04-.6-5.77-1.79-1.72-1.19-3.32-2.55-4.78-4.08l-15.22-15.72h-10.54v6.76c0,2.05-.22,4.13-.65,6.22-.43,2.09-1.5,3.9-3.23,5.42-1.53,1.32-3.3,2.17-5.32,2.54-2.02.36-3.8.61-5.32.74-.06,0-.23-.06-.5-.2-.13-.13-.2-.3-.2-.5v-55.2c0-.13.07-.33.2-.6.26-.13.43-.2.5-.2.8.07,1.64.15,2.54.25.9.1,1.82.27,2.79.5.96.23,1.89.56,2.78.99.9.43,1.74.98,2.54,1.64,1.73,1.53,2.8,3.34,3.23,5.42.43,2.09.65,4.13.65,6.12v6.67h8.85l15.12-15.72c1.45-1.46,3.05-2.8,4.77-4.03,1.72-1.23,3.65-1.84,5.77-1.84h.1c1.92,0,3.65.47,5.17,1.39,1.52.93,2.78,1.86,3.78,2.78.2.2.3.36.3.5s-.07.34-.2.6l-21.58,22.18,23.37,23.97Z"/>
  </g>
</svg>