<?xml version="1.0" encoding="UTF-8"?>
<svg id="katman_1" data-name="katman 1" xmlns="http://www.w3.org/2000/svg" width="449.25mm" height="242.46mm" viewBox="0 0 1273.45 687.29">
  <g>
    <path d="M363.56,305.74c5.25,0,10.12-1.13,14.59-3.4,3.74-1.89,7.18-4.54,10.31-7.94,1.03-1.12,2.79-1.14,3.88-.07l13.57,13.33c1.02,1,1.12,2.65.17,3.71-4.81,5.39-10.88,9.79-18.2,13.2-8.18,3.81-16.6,5.71-25.25,5.71-8.13,0-15.78-1.44-22.93-4.32-7.16-2.88-13.31-6.79-18.45-11.74-5.15-4.94-9.21-10.81-12.2-17.6-2.99-6.79-4.48-14.1-4.48-21.93s1.49-15.16,4.48-22.01c2.99-6.84,7.08-12.74,12.28-17.68,5.2-4.94,11.35-8.85,18.45-11.74,7.1-2.88,14.72-4.32,22.85-4.32,4.42,0,8.85.52,13.28,1.54,4.43,1.03,8.65,2.45,12.66,4.25,4.01,1.8,7.72,4.01,11.12,6.64,2.66,2.06,5.04,4.29,7.13,6.69.96,1.11.94,2.76-.11,3.78l-14.05,13.81c-1.09,1.07-2.87,1.06-3.89-.08-3.33-3.69-6.97-6.56-10.93-8.6-4.69-2.42-9.76-3.63-15.21-3.63-4.32,0-8.36.8-12.12,2.39-3.76,1.6-7,3.78-9.73,6.56-2.73,2.78-4.89,6.1-6.49,9.96-1.6,3.86-2.39,8.01-2.39,12.43s.8,8.52,2.39,12.28c1.6,3.76,3.81,7.03,6.64,9.81,2.83,2.78,6.18,4.97,10.04,6.56,3.86,1.6,8.05,2.39,12.58,2.39Z"/>
    <path d="M417.29,326.02v-102.64c0-1.51,1.22-2.73,2.73-2.73h21.1c1.51,0,2.73,1.22,2.73,2.73v36.08c0,1.51,1.22,2.73,2.73,2.73h39.02c1.51,0,2.73-1.22,2.73-2.73v-36.08c0-1.51,1.22-2.73,2.73-2.73h21.1c1.51,0,2.73,1.22,2.73,2.73v102.64c0,1.51-1.22,2.73-2.73,2.73h-21.1c-1.51,0-2.73-1.22-2.73-2.73v-36.85c0-1.51-1.22-2.73-2.73-2.73h-39.02c-1.51,0-2.73,1.22-2.73,2.73v36.85c0,1.51-1.22,2.73-2.73,2.73h-21.1c-1.51,0-2.73-1.22-2.73-2.73Z"/>
    <path d="M531.09,326.02v-102.64c0-1.51,1.22-2.73,2.73-2.73h21.1c1.51,0,2.73,1.22,2.73,2.73v79.17c0,1.51,1.22,2.73,2.73,2.73h51.52c1.51,0,2.73,1.22,2.73,2.73v18.02c0,1.51-1.22,2.73-2.73,2.73h-78.08c-1.51,0-2.73-1.22-2.73-2.73Z"/>
    <path d="M718.4,281.65c0,7.31-1.18,13.97-3.55,20-2.37,6.02-5.69,11.14-9.96,15.36-4.27,4.22-9.45,7.49-15.52,9.81-6.08,2.32-12.82,3.47-20.23,3.47s-14.18-1.13-20.31-3.4c-6.13-2.26-11.3-5.51-15.52-9.73-4.22-4.22-7.49-9.34-9.81-15.37-2.32-6.02-3.47-12.74-3.47-20.15v-58.27c0-1.51,1.22-2.73,2.73-2.73h21.1c1.51,0,2.73,1.22,2.73,2.73v58.27c0,7.31,2.09,13.15,6.25,17.53,4.17,4.38,9.65,6.56,16.45,6.56s12.25-2.19,16.37-6.56c4.12-4.37,6.18-10.22,6.18-17.53v-58.27c0-1.51,1.22-2.73,2.73-2.73h21.1c1.51,0,2.73,1.22,2.73,2.73v58.27Z"/>
    <path d="M752.35,328.75h-23.62c-2.24,0-3.52-2.54-2.2-4.34l36.54-49.77c.71-.97.7-2.28-.01-3.25l-34.61-46.37c-1.34-1.8-.06-4.36,2.19-4.36h24.81c.88,0,1.71.43,2.22,1.15l20.12,28.31c1.09,1.53,3.36,1.53,4.45,0l20.12-28.31c.51-.72,1.34-1.15,2.22-1.15h23.62c2.24,0,3.52,2.54,2.2,4.34l-34.06,46.38c-.71.97-.71,2.29.01,3.25l37.22,49.76c1.35,1.8.06,4.36-2.18,4.36h-24.8c-.88,0-1.71-.43-2.22-1.14l-22.74-31.87c-1.09-1.53-3.36-1.52-4.45,0l-22.6,31.86c-.51.72-1.34,1.15-2.23,1.15Z"/>
    <rect x="843.15" y="220.67" width="85.27" height="22.98" rx="3.4" ry="3.4"/>
    <rect x="843.15" y="262.35" width="65.31" height="22.98" rx="3.4" ry="3.4"/>
    <rect x="843.15" y="305.75" width="85.27" height="22.98" rx="3.4" ry="3.4"/>
  </g>
  <g>
    <path d="M415.68,464.2v-102.82c0-1.35,1.09-2.44,2.44-2.44h52.64c5.54,0,10.64.85,15.31,2.54,4.67,1.69,8.67,4.05,12,7.08,3.33,3.02,5.95,6.64,7.85,10.85,1.9,4.21,2.85,8.83,2.85,13.85,0,6.77-1.85,12.82-5.54,18.16-3.22,4.65-7.34,8.33-12.35,11.03-1.22.66-1.72,2.13-1.05,3.35l20.35,37.25c.89,1.63-.29,3.61-2.14,3.61h-23.94c-.91,0-1.75-.51-2.17-1.32l-18.94-36.6c-.42-.81-1.26-1.32-2.17-1.32h-16.23c-1.35,0-2.44,1.09-2.44,2.44v34.35c0,1.35-1.09,2.44-2.44,2.44h-21.58c-1.35,0-2.44-1.09-2.44-2.44ZM468.3,381.55h-23.72c-1.35,0-2.44,1.09-2.44,2.44v19.43c0,1.35,1.09,2.44,2.44,2.44h23.72c4.1,0,7.41-1.13,9.93-3.38,2.51-2.26,3.77-5.18,3.77-8.77s-1.26-6.51-3.77-8.77c-2.52-2.25-5.82-3.38-9.93-3.38Z"/>
    <path d="M633.56,412.79c0,7.69-1.49,14.95-4.46,21.77-2.98,6.82-7.03,12.72-12.16,17.7-5.13,4.98-11.23,8.9-18.31,11.77-7.08,2.87-14.62,4.31-22.62,4.31s-15.54-1.44-22.62-4.31c-7.08-2.87-13.18-6.79-18.31-11.77-5.13-4.98-9.18-10.87-12.16-17.7-2.98-6.82-4.46-14.08-4.46-21.77s1.49-14.95,4.46-21.77c2.97-6.82,7.03-12.72,12.16-17.7,5.13-4.97,11.23-8.9,18.31-11.77,7.08-2.87,14.62-4.31,22.62-4.31s15.54,1.44,22.62,4.31c7.08,2.87,13.18,6.8,18.31,11.77,5.13,4.98,9.18,10.87,12.16,17.7,2.97,6.82,4.46,14.08,4.46,21.77ZM606.32,412.79c0-4.41-.77-8.54-2.31-12.39-1.54-3.85-3.67-7.16-6.39-9.93-2.72-2.77-5.92-4.95-9.62-6.54-3.69-1.59-7.69-2.39-12-2.39s-8.31.79-12,2.39c-3.69,1.59-6.9,3.77-9.62,6.54-2.72,2.77-4.85,6.08-6.39,9.93-1.54,3.85-2.31,7.98-2.31,12.39s.77,8.54,2.31,12.39c1.54,3.85,3.67,7.16,6.39,9.93,2.72,2.77,5.92,4.95,9.62,6.54,3.69,1.59,7.69,2.39,12,2.39s8.31-.79,12-2.39c3.69-1.59,6.9-3.77,9.62-6.54,2.72-2.77,4.85-6.08,6.39-9.93,1.54-3.85,2.31-7.97,2.31-12.39Z"/>
    <path d="M670.95,464.2v-36.98c0-.48-.14-.95-.4-1.35l-41.71-63.15c-1.07-1.62.09-3.79,2.04-3.79h24.59c.83,0,1.61.43,2.06,1.13l25.38,39.81c.96,1.5,3.15,1.51,4.12,0l25.53-39.82c.45-.7,1.22-1.12,2.06-1.12h22.9c1.95,0,3.11,2.17,2.04,3.79l-41.71,63.15c-.26.4-.4.87-.4,1.35v36.98c0,1.35-1.09,2.44-2.44,2.44h-21.58c-1.35,0-2.44-1.09-2.44-2.44Z"/>
    <path d="M716.18,463.27l42.16-102.82c.38-.92,1.27-1.52,2.26-1.52h27.03c1,0,1.89.6,2.26,1.53l41.57,102.82c.65,1.61-.53,3.36-2.26,3.36h-23.31c-1.02,0-1.92-.63-2.28-1.58l-8.65-22.85c-.36-.95-1.27-1.58-2.28-1.58h-38.64c-1.01,0-1.92.62-2.28,1.57l-8.8,22.87c-.36.94-1.27,1.57-2.28,1.57h-22.22c-1.74,0-2.92-1.76-2.26-3.37ZM763.9,419.56h19.08c1.71,0,2.89-1.7,2.29-3.3l-9.43-25.14c-.79-2.1-3.76-2.12-4.57-.02l-9.65,25.14c-.61,1.6.57,3.32,2.28,3.32Z"/>
    <path d="M840.15,464.16v-102.64c0-1.51,1.22-2.73,2.73-2.73h21.1c1.51,0,2.73,1.22,2.73,2.73v79.17c0,1.51,1.22,2.73,2.73,2.73h51.52c1.51,0,2.73,1.22,2.73,2.73v18.02c0,1.51-1.22,2.73-2.73,2.73h-78.08c-1.51,0-2.73-1.22-2.73-2.73Z"/>
  </g>
</svg>