<?xml version="1.0" encoding="UTF-8"?>
<svg id="katman_1" data-name="katman 1" xmlns="http://www.w3.org/2000/svg" width="449.25mm" height="242.46mm" viewBox="0 0 1273.45 687.29">
  <path d="M765.21,365.13l-21.28-100.38c-1.06-5.02-5.41-8.53-10.56-8.53-4.17,0-7.88,2.35-9.68,6.14l-51.41,108-51.36-108.05c-1.8-3.79-5.51-6.14-9.68-6.14-5.16,0-9.5,3.51-10.56,8.53l-21.25,100.44c-.26,1.21.04,2.45.82,3.4.78.96,1.93,1.51,3.16,1.51h20.21c1.92,0,3.55-1.31,3.97-3.18l10.94-48.78,50.06,106.97c.68,1.45,2.09,2.34,3.69,2.34s3.01-.9,3.69-2.34l50.12-107.07,10.96,48.89c.42,1.87,2.05,3.18,3.97,3.18h20.22c1.23,0,2.39-.55,3.16-1.51.78-.96,1.07-2.2.82-3.41Z"/>
  <path d="M874.89,255.38h-110.14c-1.23,0-2.38.55-3.15,1.5-.77.95-1.08,2.19-.82,3.39l4.34,20.83c.39,1.87,2.06,3.23,3.98,3.23h25.91v81.58c0,2.24,1.82,4.06,4.06,4.06h21.63c2.24,0,4.06-1.82,4.06-4.06v-81.39h50.13c2.24,0,4.06-1.82,4.06-4.06v-21.01c0-2.24-1.82-4.06-4.06-4.06Z"/>
  <g>
    <path d="M743.09,398.39h-6.45v-5.74h6.45c1.73,0,4.18,1.05,4.18,3.07s-2.45,2.68-4.18,2.68M736.64,383.8h6.45c2.69,0,3.51,1.73,3.51,2.74,0,1.28-.87,2.4-3.51,2.4h-6.45v-5.14ZM750.78,386.45c0-4.5-3.29-6.48-7.69-6.48h-10.6v22.34h10.6c4.63,0,8.36-1.59,8.36-6.57,0-1.4-.95-4.18-3.57-4.98,2.07-.93,2.9-2.59,2.9-4.31"/>
    <path d="M762.46,399.22c-2.59,0-4.66-1.79-4.66-4.78s2.07-4.76,4.66-4.76c6.13,0,6.13,9.54,0,9.54M762.11,386.2c-4.6-.03-8.21,2.81-8.21,8.24s3.45,8.39,8.11,8.36c1.75-.03,4.21-.92,5.1-2.78l.19,2.3h3.67v-15.74h-3.73l-.13,2.18c-.89-1.56-2.9-2.55-5.01-2.55"/>
    <path d="M781.3,399.48c-1.76-.03-3.92-.64-5.43-2.21l-1.91,2.78c2.3,2.39,4.78,2.81,7.28,2.81,4.5,0,6.77-2.39,6.77-5.17,0-4.18-3.77-4.85-6.73-5.05-2.01-.12-2.93-.7-2.93-1.72s1.01-1.56,2.87-1.56c1.5,0,2.77.35,3.89,1.4l2.17-2.55c-1.82-1.59-3.67-2.07-6.13-2.07-2.87,0-6.63,1.28-6.63,4.92s3.55,4.66,6.51,4.88c2.23.13,3.13.74,3.13,1.82,0,1.15-1.38,1.76-2.84,1.73"/>
    <path d="M798.63,389.54c2.23,0,3.83,1.02,4.09,3.07h-8.49c.57-2.04,2.29-3.07,4.4-3.07M803.07,397.72c-.9.93-2.78,1.47-4.22,1.47-2.74,0-4.44-1.41-4.69-3.35h12.29c.6-6.48-2.69-9.74-7.95-9.74s-8.36,3.44-8.36,8.24c0,5.05,3.22,8.39,8.65,8.39,2.39,0,5.11-.83,6.77-2.55l-2.48-2.45Z"/>
    <path d="M817.05,399.06c-2.49,0-4.47-1.89-4.47-4.64s1.98-4.59,4.47-4.59,4.56,1.85,4.56,4.59-2.11,4.64-4.56,4.64M822.12,402.32h3.64v-22.31h-3.89v8.72c-.92-1.63-3.51-2.52-5.17-2.52-4.59,0-8.01,2.81-8.01,8.23s3.48,8.24,8.11,8.24c1.91,0,3.86-.63,5.07-2.52l.26,2.17Z"/>
    <path d="M840.64,394.46c0-2.36,1.47-4.66,4.27-4.66,2.62,0,4.28,2.3,4.28,4.66s-1.44,4.63-4.28,4.63-4.27-2.24-4.27-4.63M853.12,394.46c0-4.5-3.22-8.2-8.24-8.2s-8.14,3.71-8.14,8.2,3.07,8.2,8.17,8.2,8.21-3.67,8.21-8.2"/>
    <path d="M865.28,386.32c-1.98,0-3.58.8-5.17,2.36l-.26-2.14h-3.48v15.77h3.86v-8.04c0-2.39,1.63-4.4,4.02-4.4s3.8,1.82,3.8,4.21v8.24h3.89v-8.27c0-4.95-2.97-7.73-6.67-7.73"/>
    <path d="M709.27,418.04c.58-2.04,2.3-3.07,4.4-3.07,2.24,0,3.83,1.02,4.09,3.07h-8.49ZM713.55,411.53c-5.11,0-8.36,3.44-8.36,8.23,0,5.05,3.22,8.4,8.65,8.4,2.39,0,5.11-.83,6.77-2.55l-2.48-2.45c-.9.92-2.78,1.46-4.22,1.46-2.74,0-4.44-1.4-4.69-3.35h12.29c.6-6.48-2.69-9.73-7.95-9.73"/>
    <polygon points="733.76 412 730.66 417.34 727.57 412 722.91 412 722.91 412.13 728.08 419.76 722.59 427.64 722.59 427.73 727.25 427.73 730.66 422.48 734.07 427.73 738.74 427.73 738.74 427.64 733.25 419.76 738.42 412.13 738.42 412 733.76 412"/>
    <path d="M749.91,424.35c-2.65,0-4.47-2.01-4.47-4.47s1.66-4.47,4.47-4.47,4.47,2.01,4.47,4.47-1.82,4.47-4.47,4.47M750.2,411.65c-1.79,0-3.89.77-5.11,2.52l-.26-2.18h-3.64v22.95h3.89v-9.06c1.11,1.73,3.58,2.24,5.23,2.24,5.05,0,7.95-3.64,7.95-8.24s-3.22-8.24-8.07-8.24"/>
    <path d="M764.69,418.04c.58-2.04,2.31-3.07,4.41-3.07,2.23,0,3.82,1.02,4.09,3.07h-8.5ZM768.97,411.53c-5.11,0-8.36,3.44-8.36,8.23,0,5.05,3.22,8.4,8.65,8.4,2.39,0,5.11-.83,6.77-2.55l-2.48-2.45c-.9.92-2.78,1.46-4.21,1.46-2.75,0-4.44-1.4-4.69-3.35h12.28c.6-6.48-2.69-9.73-7.95-9.73"/>
    <path d="M783.97,413.82l-.29-1.82h-3.61v15.73h3.89v-8.29c0-2.91,1.89-3.99,3.92-3.99,1.28,0,2.01.36,2.81,1.02l1.76-3.38c-.86-.86-2.42-1.5-4.06-1.5s-3.22.29-4.44,2.24"/>
    <path d="M794.19,407.57c0,3.03,4.6,3.03,4.6,0s-4.6-3.03-4.6,0"/>
    <rect x="794.54" y="411.95" width="3.89" height="15.79"/>
    <path d="M805.8,418.04c.58-2.04,2.3-3.07,4.41-3.07,2.23,0,3.82,1.02,4.09,3.07h-8.5ZM810.08,411.53c-5.11,0-8.36,3.44-8.36,8.23,0,5.05,3.22,8.4,8.65,8.4,2.39,0,5.11-.83,6.77-2.55l-2.48-2.45c-.9.92-2.78,1.46-4.21,1.46-2.75,0-4.44-1.4-4.7-3.35h12.29c.6-6.48-2.69-9.73-7.95-9.73"/>
    <path d="M830.1,411.75c-1.98,0-3.58.8-5.17,2.36l-.26-2.14h-3.48v15.77h3.86v-8.04c0-2.4,1.63-4.4,4.02-4.4s3.8,1.81,3.8,4.21v8.24h3.89v-8.27c0-4.95-2.97-7.73-6.67-7.73"/>
    <path d="M848.2,424.48c-2.42,0-4.47-1.59-4.47-4.6,0-2.74,1.91-4.66,4.53-4.66,1.08,0,2.24.42,3.16,1.25l2.46-2.59c-1.73-1.69-3.44-2.33-5.68-2.33-4.57,0-8.36,2.75-8.36,8.33s3.79,8.34,8.36,8.34c2.33,0,4.24-.7,6.06-2.49l-2.62-2.55c-.96.96-2.2,1.31-3.44,1.31"/>
    <path d="M859.66,418.04c.57-2.04,2.29-3.07,4.4-3.07,2.24,0,3.84,1.02,4.09,3.07h-8.48ZM863.94,411.53c-5.11,0-8.36,3.44-8.36,8.23,0,5.05,3.22,8.4,8.65,8.4,2.39,0,5.11-.83,6.77-2.55l-2.48-2.45c-.9.92-2.78,1.46-4.22,1.46-2.74,0-4.44-1.4-4.69-3.35h12.29c.6-6.48-2.69-9.73-7.95-9.73"/>
  </g>
  <path d="M572.44,320.21c-.77-.95-1.92-1.5-3.15-1.5h-57.02c-2.24,0-4.06,1.82-4.06,4.06v20.22c0,2.24,1.82,4.06,4.06,4.06h52.81c1.91,0,3.59-1.36,3.98-3.23l4.21-20.21c.25-1.2-.05-2.44-.82-3.39Z"/>
  <path d="M550.13,371.27c-.76-.8-1.83-1.25-2.93-1.25-1.02,0-1.99.38-2.75,1.07-4.06,3.71-8.64,6.77-13.61,9.12-6.77,2.98-14.06,4.49-21.68,4.49s-15-1.47-21.52-4.37c-14.23-6.48-24.72-18.85-28.76-33.93-1.08-4.3-1.64-8.89-1.64-13.62,0-4.06.42-8.04,1.25-11.84,4.45-19.07,19.67-34.31,38.77-38.8,3.8-.84,7.82-1.28,11.9-1.28,13.15,0,25.28,4.63,35.09,13.4.75.67,1.72,1.04,2.72,1.04,1.08,0,2.1-.42,2.86-1.19l11.65-11.64,2.62-2.62c.78-.78,1.21-1.86,1.19-2.95-.02-1.1-.5-2.16-1.31-2.9-7.04-6.51-14.93-11.71-23.44-15.44-9.67-4.14-20.23-6.23-31.39-6.23-22.28,0-41.36,7.98-56.71,23.71-15.75,15.56-23.74,34.65-23.74,56.73s7.76,40.75,23.73,56.72c15.97,15.97,34.52,23.73,56.72,23.73,7.26,0,13.83-.85,20.08-2.61,6.62-1.6,12.62-3.98,18.35-7.25,5.71-3.16,10.91-6.91,15.87-11.45.12-.1.26-.24.41-.37.8-.75,1.25-1.77,1.28-2.87.03-1.09-.37-2.12-1.13-2.91l-13.88-14.5Z"/>
</svg>