<?xml version="1.0" encoding="UTF-8"?>
<svg id="katman_1" data-name="katman 1" xmlns="http://www.w3.org/2000/svg" width="552.25mm" height="242.46mm" viewBox="0 0 1565.42 687.29">
  <defs>
    <style>
      .cls-1 {
        fill: #1d1d1b;
      }
    </style>
  </defs>
  <g>
    <path d="M291.36,344.55h-55.52c-.62,0-1.16.22-1.58.65-.41.39-.63.94-.63,1.56v.08c.59,7.75,2.61,13.35,5.99,16.63,2.53,2.67,5.7,4.38,9.4,5.05,3.56.65,7.07.97,10.44.97h10.39v11.97h-23.75c-6.36,0-11.62-.43-15.63-1.28-3.92-.83-7.06-2.19-9.35-4.04-2.26-1.84-3.93-4.31-4.96-7.34-1.06-3.1-1.59-7.19-1.59-12.14,0-9.1,2.31-15.47,6.87-18.94,4.54-3.55,12.83-5.34,24.66-5.34h24.75c3.65,0,7.36-.32,11.02-.95,3.84-.66,7.2-2.4,10-5.16,2.45-2.53,4.05-5.42,4.79-8.61.71-3.09,1.12-5.88,1.24-8.32,0-.66-.22-1.2-.64-1.61-.43-.42-.97-.64-1.57-.64h-51.5c-8.66,0-15.97.62-21.72,1.83-5.69,1.21-10.69,3.14-14.86,5.76h-.18l-.25.16c-6.7,4.33-11.93,10.27-15.56,17.65-3.62,7.35-5.46,15.51-5.46,24.25,0,9.2,1.83,17.59,5.45,24.94,3.63,7.37,8.85,13.36,15.53,17.82,4.11,2.7,9.22,4.69,15.19,5.93,5.92,1.22,13.24,1.83,21.77,1.83h26.75c3.64,0,7.35-.33,11.02-.97,3.83-.66,7.19-2.41,10-5.21.27-.27.48-.52.64-.75.08-.11.21-.27.4-.46l.03-.03.03-.03c1.82-2.18,3.17-4.9,4.02-8.08.83-3.12,1.24-7.07,1.24-11.76v-28.55c0-1.89-.68-3.52-2.03-4.86-1.35-1.34-2.99-2.02-4.88-2.02Z"/>
    <path d="M415.3,314.68c-4.35-2.7-9.48-4.69-15.26-5.92-5.74-1.22-13.04-1.83-21.69-1.83h-13.29c-8.64,0-15.94.62-21.69,1.83-5.67,1.21-10.66,3.15-14.83,5.76h-.18l-.25.17c-6.55,4.33-11.75,10.26-15.44,17.64-3.67,7.35-5.54,15.51-5.54,24.25s1.83,17.45,5.45,24.86c3.63,7.43,8.85,13.46,15.53,17.91,4.13,2.71,9.24,4.7,15.19,5.93,5.92,1.22,13.24,1.83,21.77,1.83h13.29c8.65,0,16-.62,21.86-1.83,5.9-1.22,10.97-3.22,15.1-5.92,6.68-4.45,11.9-10.48,15.53-17.91,3.61-7.4,5.45-15.77,5.45-24.86s-1.83-16.9-5.45-24.25c-3.63-7.38-8.86-13.32-15.54-17.65ZM407.89,356.58c0,4.92-.56,8.98-1.67,12.09-1.09,3.03-2.79,5.49-5.04,7.32-2.28,1.84-5.4,3.2-9.27,4.03-3.93.84-9.04,1.27-15.18,1.27h-10.03c-6.26,0-11.43-.43-15.36-1.27-3.87-.83-6.99-2.18-9.26-4.03-2.26-1.83-3.93-4.28-4.96-7.31-1.05-3.09-1.58-7.17-1.58-12.11,0-9.06,2.31-15.41,6.87-18.87,4.54-3.53,12.71-5.32,24.3-5.32h9.86c11.59,0,19.83,1.79,24.47,5.32,2.25,1.82,3.97,4.26,5.12,7.24,1.16,3.03,1.75,6.95,1.75,11.63Z"/>
    <rect x="378.22" y="279.84" width="24.25" height="24.95" rx="2.72" ry="2.72"/>
    <rect x="340.09" y="279.84" width="24.08" height="24.95" rx="2.72" ry="2.72"/>
    <path d="M547.72,396.57c-.73-3.28-2.33-6.17-4.75-8.6-2.78-2.78-6.15-4.56-10.01-5.28-3.73-.7-7.44-1.06-11.05-1.06h-29.61c1.43-1.52,3.31-3.5,5.75-6.07,3.28-3.46,6.84-7.22,10.7-11.31l2.69-2.84c3.02-3.19,6.12-6.47,9.31-9.84,3.79-4,7.56-8,11.21-11.91,3.58-3.82,7.47-7.94,11.56-12.25,2.24-2.23,3.38-5.03,3.38-8.28s-1.17-6.07-3.48-8.39c-2.32-2.31-5.14-3.48-8.38-3.48h-26.23c-5.34,0-10.3-.03-15.17-.09-5.43-.06-10.4-.09-15.2-.09h-26.57c-.61,0-1.15.22-1.57.64-.41.4-.64.95-.64,1.57.11,2.48.53,5.3,1.23,8.42.73,3.21,2.32,6.13,4.74,8.66,2.79,2.8,6.14,4.54,9.96,5.21,3.66.64,7.35.96,10.96.96h26.32l-52.76,56.1c-.26.13-.46.36-.55.64-1.54,2.33-2.2,4.9-1.96,7.65.25,2.83,1.46,5.28,3.59,7.28,1.73,1.73,3.71,2.81,5.86,3.19l.09.02h89.81c.46,0,1.11-.16,1.64-.88.37-.4.56-.92.56-1.49v-.09c-.24-2.47-.71-5.29-1.4-8.4Z"/>
    <path d="M623.87,304.79h18.81c1.71,0,2.73-1.02,2.73-2.72v-19.5c0-1.71-1.02-2.72-2.73-2.72h-18.81c-1.71,0-2.72,1.02-2.72,2.72v19.5c0,1.71,1.02,2.72,2.72,2.72Z"/>
    <rect x="583.02" y="279.84" width="24.08" height="24.95" rx="2.72" ry="2.72"/>
    <path d="M668.21,306.93h-.08c-1.45.13-2.94.27-4.43.44-1.58.18-3.24.47-4.95.89-1.73.42-3.43,1.02-5.03,1.8-1.62.78-3.12,1.79-4.46,3-3.13,2.78-5.15,6.09-6,9.84-.82,3.61-1.24,7.28-1.24,10.92v23.12c0,4.82-.53,8.77-1.58,11.75-1.03,2.92-2.69,5.32-4.95,7.14-2.18,1.86-5.21,3.3-9.02,4.3-3.48.9-7.91,1.36-13.17,1.36-.6,0-1.21,0-1.83-.02-5.04-.11-9.29-.73-12.64-1.85-3.29-1.1-5.89-2.58-7.72-4.42-3.82-3.49-5.75-9.57-5.75-18.1v-23.12c0-3.61-.39-7.31-1.15-10.99-.79-3.82-2.78-7.17-5.92-9.95-2.78-2.41-6.04-4-9.7-4.72-3.54-.69-6.7-1.1-9.38-1.22h0c-.3,0-.59.07-1.34.45l-.14.07-.11.11c-.42.41-.65.96-.65,1.58v47.79c.11,9.09,1.97,17.42,5.53,24.77,3.58,7.38,8.78,13.32,15.45,17.66,4.11,2.7,9.21,4.72,15.17,6,5.42,1.17,12.03,1.76,19.64,1.76.71,0,1.42,0,2.15-.02h.68c7.75-.11,14.41-.82,19.81-2.1,5.44-1.29,10.16-3.25,14.04-5.83,6.67-4.33,11.9-10.24,15.53-17.56,3.62-7.3,5.46-15.6,5.46-24.69v-47.96c0-.61-.22-1.15-.64-1.57-.43-.42-.97-.64-1.57-.64Z"/>
    <path d="M799.22,307.7l-.3-.15c-.64-.31-1.08-.45-1.47-.45h-88.34c-3.7,0-7.41.33-11.04.97-3.77.67-7.03,2.42-9.7,5.21-2.41,2.41-4.01,5.28-4.74,8.5-.7,3.11-1.17,5.91-1.4,8.32v.05s0,.05,0,.05c0,.62.22,1.16.65,1.58.39.41.94.63,1.56.63l41.1.17v72.68c0,.56.19,1.06.54,1.46.24.37.72.74,1.67.74,2.72-.11,5.79-.51,9.42-1.22,3.66-.72,6.92-2.31,9.7-4.71,3.15-2.79,5.14-6.14,5.93-9.96.76-3.66,1.14-7.36,1.14-10.99v-48h18.84c3.61,0,7.29-.32,10.96-.96,3.81-.67,7.16-2.42,9.94-5.2,2.42-2.42,4.02-5.32,4.76-8.6.68-3.08,1.09-5.82,1.22-8.13.14-.48.05-1.04-.27-1.68l-.15-.3Z"/>
    <path d="M914.27,314.68c-4.35-2.7-9.48-4.69-15.26-5.92-5.74-1.22-13.04-1.83-21.69-1.83h-13.29c-8.64,0-15.94.62-21.69,1.83-5.67,1.21-10.66,3.15-14.83,5.76h-.18l-.25.17c-6.55,4.33-11.75,10.26-15.44,17.64-3.67,7.35-5.54,15.51-5.54,24.25s1.83,17.45,5.45,24.86c3.63,7.43,8.85,13.46,15.53,17.91,4.13,2.71,9.24,4.7,15.19,5.93,5.92,1.22,13.24,1.83,21.77,1.83h13.29c8.65,0,16-.62,21.86-1.83,5.9-1.22,10.97-3.22,15.1-5.92,6.68-4.45,11.9-10.48,15.53-17.91,3.61-7.4,5.45-15.77,5.45-24.86s-1.83-16.9-5.45-24.25c-3.63-7.38-8.86-13.32-15.54-17.65ZM906.86,356.58c0,4.92-.56,8.98-1.67,12.09-1.09,3.03-2.79,5.49-5.04,7.32-2.28,1.84-5.4,3.2-9.27,4.03-3.93.84-9.04,1.27-15.18,1.27h-10.03c-6.26,0-11.43-.43-15.36-1.27-3.87-.83-6.99-2.18-9.26-4.03-2.26-1.83-3.93-4.28-4.96-7.31-1.05-3.09-1.58-7.17-1.58-12.11,0-9.06,2.31-15.41,6.87-18.87,4.54-3.53,12.71-5.32,24.3-5.32h9.86c11.59,0,19.83,1.79,24.47,5.32,2.25,1.82,3.97,4.26,5.12,7.24,1.16,3.03,1.75,6.95,1.75,11.63Z"/>
    <path d="M1050.23,396.43l-39.87-40.88,36.76-37.78.11-.11.07-.14c.31-.62.45-1.08.45-1.49,0-.68-.46-1.22-.81-1.57-1.77-1.66-4.03-3.33-6.74-4.98-2.8-1.7-5.99-2.56-9.49-2.56h-.17c-3.88,0-7.44,1.14-10.59,3.38-3.02,2.15-5.85,4.53-8.41,7.09l-25.95,26.97h-13.93v-10.56c0-3.49-.39-7.13-1.15-10.81-.79-3.82-2.78-7.17-5.92-9.95-1.48-1.22-3.03-2.22-4.63-3-1.61-.77-3.3-1.38-5.03-1.8-1.72-.41-3.39-.71-4.96-.89-1.48-.17-2.97-.31-4.43-.44h-.04s-.04,0-.04,0c-.26,0-.55.07-1.31.45l-.3.15-.15.29c-.31.61-.45,1.08-.45,1.48v95.76c0,.62.22,1.16.65,1.58l.11.1.13.07c.74.38,1.06.46,1.32.46h.09c2.64-.23,5.78-.67,9.32-1.31,3.66-.66,6.93-2.21,9.71-4.63,3.15-2.78,5.14-6.13,5.93-9.96.76-3.68,1.15-7.38,1.15-10.99v-10.73h16.86l26.11,26.95c2.56,2.68,5.4,5.1,8.43,7.2,3.14,2.18,6.7,3.28,10.57,3.28h.17c3.5,0,6.7-.86,9.49-2.56,2.62-1.59,4.83-3.21,6.59-4.83.62-.31.97-.92.97-1.72,0-.6-.22-1.14-.63-1.56Z"/>
  </g>
  <g>
    <path class="cls-1" d="M1173.39,300.23l-1.24,6.92h-6.88l-3.73,21.08h-7.15l3.73-21.08h-6.92l1.2-6.92h20.99Z"/>
    <path class="cls-1" d="M1180.35,307.67c3.01,0,5.37,1.02,7.08,3.06,1.71,2.04,2.29,4.53,1.76,7.46-.11.8-.33,1.63-.68,2.48h-13.72c.37,1.63,1.65,2.44,3.84,2.44,1.6,0,2.92-.48,3.96-1.44l4.24,3.88c-2.32,2.16-5.23,3.24-8.72,3.24s-6.07-1.05-7.82-3.16c-1.75-2.11-2.37-4.71-1.86-7.8.48-2.93,1.84-5.36,4.08-7.28,2.24-1.92,4.85-2.88,7.84-2.88ZM1175.59,316.03h7.56c-.13-1.84-1.19-2.76-3.16-2.76s-3.44.92-4.4,2.76Z"/>
    <path class="cls-1" d="M1200.39,328.79c-3.2,0-5.68-1.05-7.44-3.16-1.76-2.11-2.4-4.71-1.92-7.8.48-2.96,1.84-5.39,4.08-7.3,2.24-1.91,4.85-2.86,7.84-2.86,2.11,0,3.89.47,5.34,1.42,1.45.95,2.54,2.22,3.26,3.82l-6.04,3.16c-.59-1.28-1.63-1.92-3.12-1.92-1.17,0-2.21.37-3.1,1.12-.89.75-1.43,1.72-1.62,2.92-.21,1.2,0,2.19.62,2.96.63.77,1.5,1.16,2.62,1.16,1.55,0,2.79-.67,3.72-2l5.28,3.36c-1.01,1.68-2.36,2.95-4.04,3.82-1.68.87-3.51,1.3-5.48,1.3Z"/>
    <path class="cls-1" d="M1226.57,307.67c2.16,0,3.81.75,4.97,2.26,1.16,1.51,1.51,3.62,1.06,6.34l-2.11,11.96h-6.62l1.96-11.12c.16-1.07.01-1.86-.44-2.38-.46-.52-1.14-.78-2.04-.78-1.02,0-1.87.31-2.55.92-.68.61-1.13,1.52-1.34,2.72v-.05l-1.88,10.69h-6.62l4.94-28h6.62l-1.77,10.02c1.52-1.72,3.46-2.58,5.83-2.58Z"/>
    <path class="cls-1" d="M1249.7,307.67c2.15,0,3.81.75,4.97,2.26,1.16,1.51,1.51,3.62,1.06,6.34l-2.11,11.96h-6.62l1.96-11.12c.16-1.07.01-1.86-.44-2.38-.45-.52-1.13-.78-2.04-.78-1.01,0-1.86.31-2.54.92-.68.61-1.13,1.52-1.34,2.72v-.05l-1.89,10.69h-6.62l3.54-20h6.62l-.36,2.01c1.52-1.71,3.46-2.57,5.82-2.57Z"/>
    <path class="cls-1" d="M1267.31,328.79c-2.27,0-4.18-.57-5.74-1.7-1.56-1.13-2.62-2.54-3.18-4.22-.56-1.68-.67-3.44-.32-5.28.53-2.77,1.87-5.12,4.02-7.04,2.15-1.92,4.83-2.88,8.06-2.88s5.64,1.14,7.32,3.42c1.68,2.28,2.27,4.85,1.76,7.7-.48,2.72-1.81,5.07-4,7.04-2.19,1.97-4.83,2.96-7.92,2.96ZM1267.83,322.39c1.17,0,2.2-.39,3.08-1.16.88-.77,1.43-1.77,1.64-3,.21-1.23.02-2.23-.58-3-.6-.77-1.49-1.16-2.66-1.16s-2.16.39-3.04,1.16c-.88.77-1.43,1.77-1.64,3-.21,1.23-.02,2.23.58,3,.6.77,1.47,1.16,2.62,1.16Z"/>
    <path class="cls-1" d="M1280.51,328.23l2.25-12.85,2.86-16.35,6.65-.17-2.91,16.65-2.23,12.73h-6.62Z"/>
    <path class="cls-1" d="M1301.11,328.79c-2.27,0-4.18-.57-5.74-1.7-1.56-1.13-2.62-2.54-3.18-4.22-.56-1.68-.67-3.44-.32-5.28.53-2.77,1.87-5.12,4.02-7.04,2.15-1.92,4.83-2.88,8.06-2.88s5.64,1.14,7.32,3.42c1.68,2.28,2.27,4.85,1.76,7.7-.48,2.72-1.81,5.07-4,7.04-2.19,1.97-4.83,2.96-7.92,2.96ZM1301.63,322.39c1.17,0,2.2-.39,3.08-1.16.88-.77,1.43-1.77,1.64-3,.21-1.23.02-2.23-.58-3-.6-.77-1.49-1.16-2.66-1.16s-2.16.39-3.04,1.16c-.88.77-1.43,1.77-1.64,3-.21,1.23-.02,2.23.58,3,.6.77,1.47,1.16,2.62,1.16Z"/>
    <path class="cls-1" d="M1332.15,308.23h6.54l-3.42,19.19c-.56,3.23-1.91,5.6-4.05,7.13-2.14,1.52-4.72,2.28-7.73,2.28-2.24,0-4.19-.41-5.84-1.24-1.65-.83-2.83-2.04-3.52-3.64l5.88-3.08c.75,1.44,2.11,2.16,4.08,2.16,1.23,0,2.25-.3,3.08-.9.83-.6,1.35-1.5,1.56-2.7l.27-1.5c-1.57,1.37-3.47,2.06-5.68,2.06-2,0-3.67-.51-5-1.54-1.33-1.03-2.23-2.31-2.7-3.86-.47-1.55-.57-3.23-.3-5.04.4-2.67,1.57-4.98,3.5-6.94,1.93-1.96,4.35-2.94,7.26-2.94,2.59,0,4.47.99,5.65,2.96l.43-2.4ZM1325.44,321.95c1.17,0,2.21-.34,3.12-1.03.91-.69,1.51-1.57,1.8-2.66l.15-.83c.11-1.09-.17-1.99-.83-2.68-.66-.69-1.58-1.04-2.75-1.04-1.25,0-2.34.39-3.26,1.16s-1.49,1.76-1.7,2.96c-.21,1.2,0,2.19.64,2.96.64.77,1.59,1.16,2.84,1.16Z"/>
    <path class="cls-1" d="M1354.95,308.23h7.64l-10.16,19.4c-1.73,3.33-3.71,5.66-5.92,6.98-2.21,1.32-4.8,1.86-7.76,1.62l1.12-6.24c1.44,0,2.52-.18,3.24-.54.72-.36,1.39-1.03,2-2.02l-4.48-19.2h7.04l2.08,11.56,5.2-11.56Z"/>
    <path class="cls-1" d="M1162.83,339.23c3.81,0,6.97,1.35,9.46,4.06,2.49,2.71,3.74,6.02,3.74,9.94s-1.25,7.23-3.74,9.94c-2.49,2.71-5.65,4.06-9.46,4.06h-10.8v-28h10.8ZM1162.83,364.59c3.07,0,5.58-1.09,7.54-3.28,1.96-2.19,2.94-4.88,2.94-8.08s-.98-5.89-2.94-8.08c-1.96-2.19-4.47-3.28-7.54-3.28h-8v22.72h8Z"/>
    <path class="cls-1" d="M1189.67,346.75c2.96,0,5.35,1.05,7.18,3.14,1.83,2.09,2.74,4.57,2.74,7.42,0,.29-.03.71-.08,1.24h-17.56c.27,2.03,1.13,3.63,2.58,4.82,1.45,1.19,3.25,1.78,5.38,1.78,1.52,0,2.83-.31,3.94-.94,1.11-.63,1.94-1.45,2.5-2.46l2.32,1.36c-.88,1.41-2.08,2.53-3.6,3.36-1.52.83-3.25,1.24-5.2,1.24-3.15,0-5.71-.99-7.68-2.96-1.97-1.97-2.96-4.48-2.96-7.52s.97-5.48,2.92-7.48,4.45-3,7.52-3ZM1189.67,349.31c-2.08,0-3.82.62-5.22,1.86-1.4,1.24-2.23,2.85-2.5,4.82h14.92c-.27-2.11-1.08-3.75-2.44-4.92-1.36-1.17-2.95-1.76-4.76-1.76Z"/>
    <path class="cls-1" d="M1213.19,341.31c-1.95-.16-3.39.17-4.34,1-.95.83-1.42,2.2-1.42,4.12v.8h5.76v2.56h-5.76v17.44h-2.64v-17.44h-3.4v-2.56h3.4v-.8c0-2.61.73-4.59,2.18-5.94,1.45-1.35,3.53-1.93,6.22-1.74v2.56Z"/>
    <path class="cls-1" d="M1224.03,346.75c2.96,0,5.35,1.05,7.18,3.14,1.83,2.09,2.74,4.57,2.74,7.42,0,.29-.03.71-.08,1.24h-17.56c.27,2.03,1.13,3.63,2.58,4.82,1.45,1.19,3.25,1.78,5.38,1.78,1.52,0,2.83-.31,3.94-.94,1.11-.63,1.94-1.45,2.5-2.46l2.32,1.36c-.88,1.41-2.08,2.53-3.6,3.36-1.52.83-3.25,1.24-5.2,1.24-3.15,0-5.71-.99-7.68-2.96-1.97-1.97-2.96-4.48-2.96-7.52s.97-5.48,2.92-7.48,4.45-3,7.52-3ZM1224.03,349.31c-2.08,0-3.82.62-5.22,1.86-1.4,1.24-2.23,2.85-2.5,4.82h14.92c-.27-2.11-1.08-3.75-2.44-4.92-1.36-1.17-2.95-1.76-4.76-1.76Z"/>
    <path class="cls-1" d="M1247.51,346.75c2.43,0,4.34.74,5.74,2.22,1.4,1.48,2.1,3.47,2.1,5.98v12.28h-2.64v-12.28c0-1.79-.47-3.17-1.42-4.16-.95-.99-2.29-1.48-4.02-1.48-1.92,0-3.48.61-4.68,1.82-1.2,1.21-1.8,3.09-1.8,5.62v10.48h-2.64v-20h2.64v3.12c1.49-2.4,3.73-3.6,6.72-3.6Z"/>
    <path class="cls-1" d="M1269.79,367.71c-3.01,0-5.52-1.01-7.52-3.02-2-2.01-3-4.5-3-7.46s1-5.45,3-7.46c2-2.01,4.51-3.02,7.52-3.02,1.97,0,3.75.47,5.32,1.42,1.57.95,2.72,2.22,3.44,3.82l-2.16,1.24c-.53-1.2-1.39-2.15-2.58-2.86s-2.53-1.06-4.02-1.06c-2.21,0-4.08.77-5.6,2.3-1.52,1.53-2.28,3.41-2.28,5.62s.76,4.09,2.28,5.62c1.52,1.53,3.39,2.3,5.6,2.3,1.49,0,2.83-.35,4-1.06,1.17-.71,2.09-1.66,2.76-2.86l2.2,1.28c-.83,1.6-2.04,2.87-3.64,3.8-1.6.93-3.37,1.4-5.32,1.4Z"/>
    <path class="cls-1" d="M1291.59,346.75c2.96,0,5.35,1.05,7.18,3.14,1.83,2.09,2.74,4.57,2.74,7.42,0,.29-.03.71-.08,1.24h-17.56c.27,2.03,1.13,3.63,2.58,4.82,1.45,1.19,3.25,1.78,5.38,1.78,1.52,0,2.83-.31,3.94-.94,1.11-.63,1.94-1.45,2.5-2.46l2.32,1.36c-.88,1.41-2.08,2.53-3.6,3.36-1.52.83-3.25,1.24-5.2,1.24-3.15,0-5.71-.99-7.68-2.96-1.97-1.97-2.96-4.48-2.96-7.52s.97-5.48,2.92-7.48,4.45-3,7.52-3ZM1291.59,349.31c-2.08,0-3.82.62-5.22,1.86-1.4,1.24-2.23,2.85-2.5,4.82h14.92c-.27-2.11-1.08-3.75-2.44-4.92-1.36-1.17-2.95-1.76-4.76-1.76Z"/>
    <path class="cls-1" d="M1165.11,406.71c-4.24,0-7.75-1.4-10.52-4.2-2.77-2.8-4.16-6.23-4.16-10.28s1.39-7.48,4.16-10.28c2.77-2.8,6.28-4.2,10.52-4.2,2.59,0,4.96.62,7.12,1.86,2.16,1.24,3.83,2.91,5,5.02l-2.48,1.44c-.88-1.71-2.19-3.07-3.92-4.08-1.73-1.01-3.64-1.52-5.72-1.52-3.49,0-6.35,1.13-8.56,3.4s-3.32,5.05-3.32,8.36,1.11,6.09,3.32,8.36c2.21,2.27,5.07,3.4,8.56,3.4,2.08,0,3.99-.51,5.72-1.52,1.73-1.01,3.04-2.37,3.92-4.08l2.48,1.4c-1.15,2.11-2.81,3.79-4.98,5.04-2.17,1.25-4.55,1.88-7.14,1.88Z"/>
    <path class="cls-1" d="M1198.01,403.69c-2.04,2.01-4.53,3.02-7.46,3.02s-5.42-1.01-7.46-3.02c-2.04-2.01-3.06-4.5-3.06-7.46s1.02-5.45,3.06-7.46c2.04-2.01,4.53-3.02,7.46-3.02s5.42,1.01,7.46,3.02c2.04,2.01,3.06,4.5,3.06,7.46s-1.02,5.45-3.06,7.46ZM1184.95,401.85c1.52,1.53,3.39,2.3,5.6,2.3s4.08-.77,5.6-2.3c1.52-1.53,2.28-3.41,2.28-5.62s-.76-4.09-2.28-5.62c-1.52-1.53-3.39-2.3-5.6-2.3s-4.08.77-5.6,2.3c-1.52,1.53-2.28,3.41-2.28,5.62s.76,4.09,2.28,5.62Z"/>
    <path class="cls-1" d="M1214.83,385.75c2.43,0,4.34.74,5.74,2.22,1.4,1.48,2.1,3.47,2.1,5.98v12.28h-2.64v-12.28c0-1.79-.47-3.17-1.42-4.16-.95-.99-2.29-1.48-4.02-1.48-1.92,0-3.48.61-4.68,1.82-1.2,1.21-1.8,3.09-1.8,5.62v10.48h-2.64v-20h2.64v3.12c1.49-2.4,3.73-3.6,6.72-3.6Z"/>
    <path class="cls-1" d="M1229.87,391.42c0,.89.41,1.6,1.22,2.12.81.52,1.79.95,2.94,1.28s2.29.65,3.44.98,2.11.92,2.9,1.78c.79.86,1.18,1.98,1.18,3.37,0,1.71-.67,3.09-2.02,4.16-1.35,1.07-3.09,1.6-5.22,1.6-1.92,0-3.55-.43-4.9-1.28-1.35-.85-2.29-1.96-2.82-3.32l2.24-1.32c.37,1.04,1.05,1.86,2.02,2.46.97.6,2.13.9,3.46.9s2.4-.26,3.28-.78c.88-.52,1.32-1.33,1.32-2.42,0-.91-.4-1.62-1.2-2.16-.8-.53-1.77-.96-2.92-1.29l-3.44-.98c-1.15-.33-2.12-.91-2.92-1.75-.8-.84-1.2-1.94-1.2-3.3,0-1.63.65-2.99,1.94-4.08,1.29-1.09,2.93-1.64,4.9-1.64,1.63,0,3.05.37,4.28,1.1,1.23.73,2.13,1.73,2.72,2.98l-2.2,1.28c-.77-1.87-2.37-2.8-4.8-2.8-1.15,0-2.13.27-2.96.81-.83.54-1.24,1.31-1.24,2.3Z"/>
    <path class="cls-1" d="M1255.75,388.79h-5.76v12.12c0,1.09.21,1.87.64,2.34.43.47,1.07.71,1.92.72.85.01,1.92,0,3.2-.06v2.32c-2.8.43-4.9.23-6.3-.6-1.4-.83-2.1-2.4-2.1-4.72v-12.12h-4.2v-2.56h4.2v-4.8l2.64-.8v5.6h5.76v2.56Z"/>
    <path class="cls-1" d="M1262.79,389.55c1.23-2.43,3.33-3.64,6.32-3.64v2.56c-1.81,0-3.32.53-4.52,1.6-1.2,1.07-1.8,2.75-1.8,5.04v11.12h-2.64v-20h2.64v3.32Z"/>
    <path class="cls-1" d="M1286.79,386.23h2.64v20h-2.64v-3.12c-1.49,2.4-3.73,3.6-6.72,3.6-2.43,0-4.34-.74-5.74-2.22-1.4-1.48-2.1-3.47-2.1-5.98v-12.28h2.64v12.28c0,1.79.47,3.17,1.42,4.16.95.99,2.29,1.48,4.02,1.48,1.92,0,3.48-.61,4.68-1.82,1.2-1.21,1.8-3.09,1.8-5.62v-10.48Z"/>
    <path class="cls-1" d="M1304.35,406.71c-3.01,0-5.52-1.01-7.52-3.02-2-2.01-3-4.5-3-7.46s1-5.45,3-7.46c2-2.01,4.51-3.02,7.52-3.02,1.97,0,3.75.47,5.32,1.42,1.57.95,2.72,2.22,3.44,3.82l-2.16,1.24c-.53-1.2-1.39-2.15-2.58-2.86s-2.53-1.06-4.02-1.06c-2.21,0-4.08.77-5.6,2.3-1.52,1.53-2.28,3.41-2.28,5.62s.76,4.09,2.28,5.62c1.52,1.53,3.39,2.3,5.6,2.3,1.49,0,2.83-.35,4-1.06,1.17-.71,2.09-1.66,2.76-2.86l2.2,1.28c-.83,1.6-2.04,2.87-3.64,3.8-1.6.93-3.37,1.4-5.32,1.4Z"/>
    <path class="cls-1" d="M1327.71,388.79h-5.76v12.12c0,1.09.21,1.87.64,2.34.43.47,1.07.71,1.92.72.85.01,1.92,0,3.2-.06v2.32c-2.8.43-4.9.23-6.3-.6-1.4-.83-2.1-2.4-2.1-4.72v-12.12h-4.2v-2.56h4.2v-4.8l2.64-.8v5.6h5.76v2.56Z"/>
    <path class="cls-1" d="M1334.99,382.79c-.43.43-.95.64-1.56.64s-1.13-.21-1.56-.64c-.43-.43-.64-.95-.64-1.56s.21-1.13.64-1.56c.43-.43.95-.64,1.56-.64s1.13.21,1.56.64c.43.43.64.95.64,1.56s-.21,1.13-.64,1.56ZM1332.11,406.23v-20h2.64v20h-2.64Z"/>
    <path class="cls-1" d="M1357.13,403.69c-2.04,2.01-4.53,3.02-7.46,3.02s-5.42-1.01-7.46-3.02c-2.04-2.01-3.06-4.5-3.06-7.46s1.02-5.45,3.06-7.46c2.04-2.01,4.53-3.02,7.46-3.02s5.42,1.01,7.46,3.02c2.04,2.01,3.06,4.5,3.06,7.46s-1.02,5.45-3.06,7.46ZM1344.07,401.85c1.52,1.53,3.39,2.3,5.6,2.3s4.08-.77,5.6-2.3c1.52-1.53,2.28-3.41,2.28-5.62s-.76-4.09-2.28-5.62c-1.52-1.53-3.39-2.3-5.6-2.3s-4.08.77-5.6,2.3c-1.52,1.53-2.28,3.41-2.28,5.62s.76,4.09,2.28,5.62Z"/>
    <path class="cls-1" d="M1373.95,385.75c2.43,0,4.34.74,5.74,2.22,1.4,1.48,2.1,3.47,2.1,5.98v12.28h-2.64v-12.28c0-1.79-.47-3.17-1.42-4.16-.95-.99-2.29-1.48-4.02-1.48-1.92,0-3.48.61-4.68,1.82-1.2,1.21-1.8,3.09-1.8,5.62v10.48h-2.64v-20h2.64v3.12c1.49-2.4,3.73-3.6,6.72-3.6Z"/>
  </g>
  <path d="M1104.94,423.81c-.55,0-1-.48-1-1.06v-133.6c0-.59.45-1.06,1-1.06s1,.48,1,1.06v133.6c0,.59-.45,1.06-1,1.06Z"/>
</svg>