<?xml version="1.0" encoding="UTF-8"?>
<svg id="katman_1" xmlns="http://www.w3.org/2000/svg" version="1.1" viewBox="0 0 1565.4 687.3">
  <!-- Generator: Adobe Illustrator 29.8.1, SVG Export Plug-In . SVG Version: 2.1.1 Build 2)  -->
  <defs>
    <style>
      .st0 {
        fill: #fff;
      }
    </style>
  </defs>
  <polygon points="359.9 303.5 360 313.4 117.9 375.5 103.9 367.7 131.8 357.3 133.2 257.4 359.9 303.5"/>
  <g>
    <path d="M1060.9,206.8c72.2-3,117.8,82.3,71.6,139.2-54.8,67.5-160.2,23.5-152.9-62.4,3.5-40.7,40.8-75.1,81.3-76.8ZM1057,236.1c-75.7,9.1-58.3,130.2,21,112.8,67.9-14.9,52.7-121.6-21-112.8Z"/>
    <polygon points="955.3 377.3 951.5 375.3 813.9 250.4 813.9 207.7 927.3 309.7 927.3 208.4 929.2 206.4 953.4 206.4 955.3 208.4 955.3 377.3"/>
    <polygon points="1423.1 374.7 1390 374.7 1340.5 275.7 1336.5 272.7 1283.6 378.5 1253.6 378.5 1337.1 209 1423.1 374.7"/>
    <polygon points="787.1 206.4 704.2 292.5 788.4 378.5 748.2 378.5 663.5 292.7 749.5 206.4 787.1 206.4"/>
    <polygon points="513 235.8 455.7 235.8 455.7 378.5 427.6 378.5 427.6 206.4 511.1 206.4 513 208.4 513 235.8"/>
    <path d="M1175.2,206.4l70.5,138.6c.7,1.9-.2,3.3-.8,5-1.9,5.8-9.1,18.8-12.4,24.6s.1,3.1-2.5,2.5l-84.2-168.2,1.4-2.6h28Z"/>
    <rect x="527.1" y="279.1" width="113.4" height="28"/>
    <polygon points="640.5 235.8 554.5 235.8 537.9 219.2 528.3 206.4 638.6 206.4 640.5 208.4 640.5 235.8"/>
    <polygon points="640.5 350.5 640.5 378.5 527.1 378.5 527.9 374.6 554.5 350.5 640.5 350.5"/>
    <polygon points="839.3 379.8 813.2 379.8 811.3 377.9 811.3 279.7 813.9 278.5 839.3 300.1 839.3 379.8"/>
    <polygon points="407.2 207.7 407.2 233.9 405.3 235.8 361.4 235.8 361.4 207.7 407.2 207.7"/>
    <path class="st0" d="M1057,236.1c73.7-8.9,88.9,97.8,21,112.8-79.3,17.4-96.7-103.6-21-112.8Z"/>
  </g>
  <g>
    <path d="M385.2,436.4h-11.1v-4h27v4h-11.2v32.5h-4.8v-32.5Z"/>
    <path d="M427.8,451.8h-14.2v13.2h15.8v4h-20.5v-36.5h19.7v4h-15v11.5h14.2v3.9Z"/>
    <path d="M439.4,432.4h4.7v17.6h.2c1-1.4,1.9-2.7,2.9-3.9l11.2-13.7h5.8l-13.2,15.5,14.2,21h-5.6l-12-17.9-3.5,4v13.9h-4.7v-36.5Z"/>
    <path d="M472.5,468.9v-36.5h5.1l11.7,18.5c2.7,4.3,4.8,8.1,6.6,11.9h.1c-.4-4.9-.5-9.4-.5-15.1v-15.3h4.4v36.5h-4.8l-11.6-18.5c-2.5-4.1-5-8.2-6.8-12.2h-.2c.3,4.7.4,9,.4,15.1v15.6h-4.4Z"/>
    <path d="M511.7,427.1c0-1.4,1.2-2.7,2.7-2.7s2.6,1.3,2.6,2.7-1.1,2.8-2.6,2.8-2.7-1.4-2.7-2.8ZM516.6,432.4v36.5h-4.7v-36.5h4.7Z"/>
    <path d="M528.7,432.4h4.7v17.6h.2c1-1.4,1.9-2.7,2.9-3.9l11.2-13.7h5.8l-13.2,15.5,14.2,21h-5.6l-12-17.9-3.5,4v13.9h-4.7v-36.5Z"/>
    <path d="M607.8,452.8c-.3-5.1-.6-11.2-.5-15.8h-.2c-1.2,4.3-2.8,8.8-4.6,13.9l-6.4,17.7h-3.6l-5.9-17.4c-1.7-5.1-3.2-9.9-4.2-14.2h-.1c-.1,4.5-.4,10.7-.7,16.1l-1,15.7h-4.5l2.5-36.5h6l6.2,17.7c1.5,4.5,2.8,8.5,3.7,12.3h.2c.9-3.7,2.2-7.7,3.8-12.3l6.5-17.7h6l2.3,36.5h-4.6l-.9-16Z"/>
    <path d="M629.1,432.4v21.6c0,8.2,3.6,11.6,8.5,11.6s8.9-3.6,8.9-11.6v-21.6h4.8v21.3c0,11.2-5.9,15.8-13.8,15.8s-13.1-4.3-13.1-15.6v-21.5h4.8ZM630.3,427.1c0-1.5,1.2-2.7,2.7-2.7s2.6,1.2,2.6,2.7-1.1,2.8-2.7,2.8-2.7-1.2-2.7-2.8ZM640.3,427.1c0-1.5,1.1-2.7,2.7-2.7s2.6,1.2,2.6,2.7-1,2.8-2.6,2.8-2.7-1.2-2.7-2.8Z"/>
    <path d="M668,432.4v15.3h17.7v-15.3h4.8v36.5h-4.8v-17.1h-17.7v17.1h-4.7v-36.5h4.7Z"/>
    <path d="M721.2,451.8h-14.2v13.2h15.8v4h-20.5v-36.5h19.7v4h-15v11.5h14.2v3.9Z"/>
    <path d="M732.8,468.9v-36.5h5.1l11.7,18.5c2.7,4.3,4.8,8.1,6.6,11.9h.1c-.4-4.9-.5-9.4-.5-15.1v-15.3h4.4v36.5h-4.8l-11.6-18.5c-2.5-4.1-5-8.2-6.8-12.2h-.2c.3,4.7.4,9,.4,15.1v15.6h-4.4Z"/>
    <path d="M772.2,432.9c2.9-.4,6.3-.8,10-.8,6.8,0,11.6,1.6,14.8,4.5,3.2,3,5.1,7.2,5.1,13.1s-1.8,10.8-5.3,14.2c-3.4,3.4-9,5.3-16.1,5.3s-6.2-.2-8.6-.4v-35.9ZM776.9,465.1c1.2.2,2.9.3,4.8.3,10.1,0,15.5-5.6,15.5-15.5,0-8.6-4.8-14.1-14.8-14.1s-4.3.2-5.5.5v28.8Z"/>
    <path d="M811.8,427.1c0-1.4,1.2-2.7,2.7-2.7s2.6,1.3,2.6,2.7-1.1,2.8-2.6,2.8-2.7-1.4-2.7-2.8ZM816.8,432.4v36.5h-4.7v-36.5h4.7Z"/>
    <path d="M828.1,463.1c2.1,1.3,5.2,2.4,8.4,2.4,4.8,0,7.6-2.5,7.6-6.2s-2-5.4-6.9-7.3c-6-2.1-9.6-5.2-9.6-10.3s4.7-9.9,11.8-9.9,6.4.9,8.1,1.8l-1.3,3.8c-1.2-.7-3.6-1.7-6.9-1.7-5,0-6.9,3-6.9,5.5s2.2,5.1,7.3,7c6.2,2.4,9.3,5.4,9.3,10.7s-4.2,10.5-12.8,10.5-7.4-1-9.3-2.3l1.2-4Z"/>
    <path d="M859.3,432.4h4.7v32.5h15.6v4h-20.3v-36.5Z"/>
    <path d="M888.4,427.1c0-1.4,1.2-2.7,2.7-2.7s2.6,1.3,2.6,2.7-1.1,2.8-2.6,2.8-2.7-1.4-2.7-2.8ZM893.4,432.4v36.5h-4.7v-36.5h4.7Z"/>
    <path d="M905.4,432.4h4.7v17.6h.2c1-1.4,2-2.7,2.9-3.9l11.2-13.7h5.8l-13.2,15.5,14.2,21h-5.6l-12-17.9-3.5,4v13.9h-4.7v-36.5Z"/>
    <path d="M953.1,463.1c2.1,1.3,5.2,2.4,8.4,2.4,4.8,0,7.6-2.5,7.6-6.2s-2-5.4-6.9-7.3c-6-2.1-9.6-5.2-9.6-10.3s4.7-9.9,11.8-9.9,6.4.9,8.1,1.8l-1.3,3.8c-1.2-.7-3.6-1.7-6.9-1.7-5,0-6.9,3-6.9,5.5s2.2,5.1,7.3,7c6.2,2.4,9.3,5.4,9.3,10.7s-4.2,10.5-12.8,10.5-7.4-1-9.3-2.3l1.2-4Z"/>
    <path d="M990.2,457.4l-3.8,11.5h-4.9l12.4-36.5h5.7l12.5,36.5h-5l-3.9-11.5h-12.9ZM1002.2,453.7l-3.6-10.5c-.8-2.4-1.4-4.5-1.9-6.7h-.1c-.5,2.2-1.1,4.4-1.8,6.6l-3.6,10.6h11Z"/>
    <path d="M1021.2,468.9v-36.5h5.1l11.7,18.5c2.7,4.3,4.8,8.1,6.6,11.9h.1c-.4-4.9-.5-9.4-.5-15.1v-15.3h4.4v36.5h-4.8l-11.6-18.5c-2.5-4.1-5-8.2-6.8-12.2h-.2c.3,4.7.4,9,.4,15.1v15.6h-4.4Z"/>
    <path d="M1066.5,457.4l-3.8,11.5h-4.9l12.4-36.5h5.7l12.5,36.5h-5l-3.9-11.5h-12.9ZM1078.5,453.7l-3.6-10.5c-.8-2.4-1.4-4.5-1.9-6.7h-.1c-.5,2.2-1.1,4.4-1.8,6.6l-3.6,10.6h11Z"/>
    <path d="M1101.4,468.9v-15.5l-11.5-21h5.4l5.1,10.1c1.4,2.8,2.5,5,3.6,7.5h.1c1-2.4,2.3-4.8,3.7-7.5l5.3-10.1h5.4l-12.2,21v15.5h-4.8Z"/>
    <path d="M1125.7,427.1c0-1.4,1.2-2.7,2.7-2.7s2.6,1.3,2.6,2.7-1.1,2.8-2.6,2.8-2.7-1.4-2.7-2.8ZM1130.7,432.4v36.5h-4.7v-36.5h4.7Z"/>
    <path d="M1164.1,468.9l-11.9-36.5h5.1l5.7,18c1.6,4.9,2.9,9.4,3.9,13.6h.1c1-4.2,2.5-8.8,4.2-13.6l6.2-18h5l-13.1,36.5h-5.2Z"/>
    <path d="M1209,451.8h-14.2v13.2h15.8v4h-20.5v-36.5h19.7v4h-15v11.5h14.2v3.9Z"/>
    <path d="M1240.5,436.4h-11.1v-4h27v4h-11.2v32.5h-4.8v-32.5Z"/>
    <path d="M1264,427.1c0-1.4,1.2-2.7,2.7-2.7s2.6,1.3,2.6,2.7-1.1,2.8-2.6,2.8-2.7-1.4-2.7-2.8ZM1269,432.4v36.5h-4.7v-36.5h4.7Z"/>
    <path d="M1306.5,467.7c-1.7.9-5.2,1.7-9.6,1.7-10.3,0-18-6.5-18-18.5s7.7-19.2,19.1-19.2,7.4,1,8.7,1.6l-1.1,3.8c-1.8-.9-4.3-1.5-7.4-1.5-8.6,0-14.2,5.5-14.2,15.1s5.1,14.7,14,14.7,5.8-.6,7.7-1.5l1,3.7Z"/>
    <path d="M1314.9,466c0-2,1.4-3.4,3.2-3.4s3.2,1.4,3.2,3.4-1.2,3.4-3.2,3.4-3.2-1.5-3.2-3.4Z"/>
    <path d="M1352.4,457.4l-3.8,11.5h-4.9l12.4-36.5h5.7l12.5,36.5h-5l-3.9-11.5h-12.9ZM1364.4,453.7l-3.6-10.5c-.8-2.4-1.4-4.5-1.9-6.7h-.1c-.5,2.2-1.1,4.4-1.8,6.6l-3.6,10.6h11Z"/>
    <path d="M1382.1,466c0-2,1.4-3.4,3.2-3.4s3.2,1.4,3.2,3.4-1.2,3.4-3.2,3.4-3.2-1.5-3.2-3.4Z"/>
    <path d="M1415.9,437.4c-1.2-.7-3.6-1.7-6.9-1.7-5,0-6.9,3-6.9,5.5s2.2,5.1,7.3,7c6.2,2.4,9.3,5.4,9.3,10.7s-3.1,9.2-9.5,10.2l-1.5,2.4c2.1.4,3.8,1.8,3.8,4.1,0,3.1-2.8,4.4-5.5,4.4s-2.9-.4-3.9-.9l.8-2.4c.8.4,1.8.7,3,.7s2.3-.5,2.3-1.6-1.7-2.1-4.2-2.3l2.2-4h-.2c-3.5,0-7.4-1-9.3-2.3l1.2-4c2.1,1.3,5.2,2.4,8.4,2.4,4.8,0,7.6-2.5,7.6-6.2s-2-5.4-6.9-7.3c-6-2.1-9.6-5.2-9.6-10.3s4.7-9.9,11.8-9.9,6.4.9,8.1,1.8l-1.3,3.8Z"/>
    <path d="M1427.6,466c0-2,1.4-3.4,3.2-3.4s3.2,1.4,3.2,3.4-1.2,3.4-3.2,3.4-3.2-1.5-3.2-3.4Z"/>
  </g>
</svg>